SplineFontDB: 3.2
FontName: Montserrat-Medium-alpahnum
FullName: Montserrat Medium alphanum
FamilyName: Montserrat Medium Alphanum
Weight: Medium
Copyright: Copyright 2011 The Montserrat Project Authors (https://github.com/JulietaUla/Montserrat)
Version: 7.200
ItalicAngle: 0
UnderlinePosition: -100
UnderlineWidth: 50
Ascent: 800
Descent: 200
InvalidEm: 0
sfntRevision: 0x00073333
LayerCount: 2
Layer: 0 1 "Back" 1
Layer: 1 1 "Fore" 0
XUID: [1021 357 2125170117 29667]
StyleMap: 0x0040
FSType: 0
OS2Version: 4
OS2_WeightWidthSlopeOnly: 0
OS2_UseTypoMetrics: 1
CreationTime: 1508265414
ModificationTime: 1611543618
PfmFamily: 81
TTFWeight: 500
TTFWidth: 5
LineGap: 0
VLineGap: 0
Panose: 0 0 6 0 0 0 0 0 0 0
OS2TypoAscent: 968
OS2TypoAOffset: 0
OS2TypoDescent: -251
OS2TypoDOffset: 0
OS2TypoLinegap: 0
OS2WinAscent: 1109
OS2WinAOffset: 0
OS2WinDescent: 270
OS2WinDOffset: 0
HheadAscent: 968
HheadAOffset: 0
HheadDescent: -251
HheadDOffset: 0
OS2SubXSize: 650
OS2SubYSize: 600
OS2SubXOff: 0
OS2SubYOff: 75
OS2SupXSize: 650
OS2SupYSize: 600
OS2SupXOff: 0
OS2SupYOff: 350
OS2StrikeYSize: 50
OS2StrikeYPos: 318
OS2CapHeight: 700
OS2XHeight: 530
OS2Vendor: 'ULA '
OS2CodePages: 20000197.00000000
OS2UnicodeRanges: 2000020f.00000003.00000000.00000000
Lookup: 1 0 0 "'aalt' Access All Alternates lookup 0" { "'aalt' Access All Alternates lookup 0 subtable"  } ['aalt' ('DFLT' <'dflt' > 'cyrl' <'BGR ' 'MKD ' 'SRB ' 'dflt' > 'latn' <'AZE ' 'CAT ' 'CRT ' 'KAZ ' 'MOL ' 'NLD ' 'ROM ' 'TAT ' 'TRK ' 'dflt' > ) ]
Lookup: 3 0 0 "'aalt' Access All Alternates lookup 1" { "'aalt' Access All Alternates lookup 1 subtable"  } ['aalt' ('DFLT' <'dflt' > 'cyrl' <'BGR ' 'MKD ' 'SRB ' 'dflt' > 'latn' <'AZE ' 'CAT ' 'CRT ' 'KAZ ' 'MOL ' 'NLD ' 'ROM ' 'TAT ' 'TRK ' 'dflt' > ) ]

StartChar: A
Encoding: 65 65 3
Width: 732
GlyphClass: 2
Flags: W
AnchorPoint: "Anchor-14" 0 0 basechar 0
AnchorPoint: "Anchor-13" 0 0 basechar 0
AnchorPoint: "Anchor-12" 366 700 basechar 0
AnchorPoint: "Anchor-11" 733 0 basechar 0
AnchorPoint: "Anchor-10" 366 0 basechar 0
LayerCount: 2
Fore
SplineSet
551 175 m 1,0,-1
 179 175 l 1,1,-1
 102 0 l 1,2,-1
 -1 0 l 1,3,-1
 316 700 l 1,4,-1
 415 700 l 1,5,-1
 733 0 l 1,6,-1
 628 0 l 1,7,-1
 551 175 l 1,0,-1
516 255 m 1,8,-1
 365 598 l 1,9,-1
 214 255 l 1,10,-1
 516 255 l 1,8,-1
EndSplineSet
Substitution2: "Single Substitution lookup 44 subtable" ordfeminine
Substitution2: "'ss01' Style Set 1 lookup 42 subtable" A.ss01
Substitution2: "'salt' Stylistic Alternatives lookup 41 subtable" A.ss01
Substitution2: "'c2sc' Capitals to Small Capitals lookup 36 subtable" a.sc
AlternateSubs2: "'aalt' Access All Alternates lookup 1 subtable" ordfeminine a.sc A.ss01
EndChar

StartChar: B
Encoding: 66 66 4
Width: 757
GlyphClass: 2
Flags: W
AnchorPoint: "Anchor-14" 0 0 basechar 0
AnchorPoint: "Anchor-13" 0 0 basechar 0
AnchorPoint: "Anchor-12" 379 700 basechar 0
AnchorPoint: "Anchor-11" 0 0 basechar 0
AnchorPoint: "Anchor-10" 379 0 basechar 0
LayerCount: 2
Fore
SplineSet
672 301.5 m 128,-1,1
 707 257 707 257 707 189 c 0,2,3
 707 98 707 98 638.5 49 c 128,-1,4
 570 0 570 0 439 0 c 2,5,-1
 105 0 l 1,6,-1
 105 700 l 1,7,-1
 419 700 l 2,8,9
 539 700 539 700 604.5 652 c 128,-1,10
 670 604 670 604 670 519 c 0,11,12
 670 464 670 464 644.5 424 c 128,-1,13
 619 384 619 384 576 363 c 1,14,0
 637 346 637 346 672 301.5 c 128,-1,1
205 619 m 1,15,-1
 205 395 l 1,16,-1
 410 395 l 2,17,18
 487 395 487 395 528.5 423.5 c 128,-1,19
 570 452 570 452 570 507 c 256,20,21
 570 562 570 562 528.5 590.5 c 128,-1,22
 487 619 487 619 410 619 c 2,23,-1
 205 619 l 1,15,-1
563 109 m 128,-1,25
 606 137 606 137 606 197 c 0,26,27
 606 314 606 314 435 314 c 2,28,-1
 205 314 l 1,29,-1
 205 81 l 1,30,-1
 435 81 l 2,31,24
 520 81 520 81 563 109 c 128,-1,25
EndSplineSet
Substitution2: "'c2sc' Capitals to Small Capitals lookup 36 subtable" b.sc
Substitution2: "'aalt' Access All Alternates lookup 0 subtable" b.sc
EndChar

StartChar: C
Encoding: 67 67 5
Width: 723
GlyphClass: 2
Flags: W
AnchorPoint: "Anchor-14" 0 0 basechar 0
AnchorPoint: "Anchor-13" 0 0 basechar 0
AnchorPoint: "Anchor-12" 411 700 basechar 0
AnchorPoint: "Anchor-11" 0 0 basechar 0
AnchorPoint: "Anchor-10" 402 0 basechar 0
LayerCount: 2
Fore
SplineSet
228.5 38.5 m 128,-1,1
 144 85 144 85 96 166.5 c 128,-1,2
 48 248 48 248 48 350 c 256,3,4
 48 452 48 452 96 533.5 c 128,-1,5
 144 615 144 615 229 661.5 c 128,-1,6
 314 708 314 708 419 708 c 0,7,8
 501 708 501 708 569 680.5 c 128,-1,9
 637 653 637 653 685 599 c 1,10,-1
 620 536 l 1,11,12
 541 619 541 619 423 619 c 0,13,14
 345 619 345 619 282 584 c 128,-1,15
 219 549 219 549 183.5 487.5 c 128,-1,16
 148 426 148 426 148 350 c 256,17,18
 148 274 148 274 183.5 212.5 c 128,-1,19
 219 151 219 151 282 116 c 128,-1,20
 345 81 345 81 423 81 c 0,21,22
 540 81 540 81 620 165 c 1,23,-1
 685 102 l 1,24,25
 637 48 637 48 568.5 20 c 128,-1,26
 500 -8 500 -8 418 -8 c 0,27,0
 313 -8 313 -8 228.5 38.5 c 128,-1,1
EndSplineSet
Substitution2: "'c2sc' Capitals to Small Capitals lookup 36 subtable" c.sc
Substitution2: "'aalt' Access All Alternates lookup 0 subtable" c.sc
EndChar

StartChar: D
Encoding: 68 68 6
Width: 826
GlyphClass: 2
Flags: W
AnchorPoint: "Anchor-14" 0 0 basechar 0
AnchorPoint: "Anchor-13" 203 356 basechar 0
AnchorPoint: "Anchor-12" 379 699 basechar 0
AnchorPoint: "Anchor-11" 0 0 basechar 0
AnchorPoint: "Anchor-10" 383 0 basechar 0
LayerCount: 2
Fore
SplineSet
105 700 m 1,0,-1
 400 700 l 2,1,2
 511 700 511 700 597 656 c 128,-1,3
 683 612 683 612 730.5 532.5 c 128,-1,4
 778 453 778 453 778 350 c 256,5,6
 778 247 778 247 730.5 167.5 c 128,-1,7
 683 88 683 88 597 44 c 128,-1,8
 511 0 511 0 400 0 c 2,9,-1
 105 0 l 1,10,-1
 105 700 l 1,0,-1
394 87 m 2,11,12
 479 87 479 87 543.5 120 c 128,-1,13
 608 153 608 153 643 212.5 c 128,-1,14
 678 272 678 272 678 350 c 256,15,16
 678 428 678 428 643 487.5 c 128,-1,17
 608 547 608 547 543.5 580 c 128,-1,18
 479 613 479 613 394 613 c 2,19,-1
 205 613 l 1,20,-1
 205 87 l 1,21,-1
 394 87 l 2,11,12
EndSplineSet
Substitution2: "'c2sc' Capitals to Small Capitals lookup 36 subtable" d.sc
Substitution2: "'aalt' Access All Alternates lookup 0 subtable" d.sc
EndChar

StartChar: E
Encoding: 69 69 7
Width: 670
GlyphClass: 2
Flags: W
AnchorPoint: "Anchor-14" 0 0 basechar 0
AnchorPoint: "Anchor-13" 0 0 basechar 0
AnchorPoint: "Anchor-12" 353 700 basechar 0
AnchorPoint: "Anchor-11" 613 0 basechar 0
AnchorPoint: "Anchor-10" 363 0 basechar 0
LayerCount: 2
Fore
SplineSet
613 87 m 1,0,-1
 613 0 l 1,1,-1
 105 0 l 1,2,-1
 105 700 l 1,3,-1
 599 700 l 1,4,-1
 599 613 l 1,5,-1
 205 613 l 1,6,-1
 205 398 l 1,7,-1
 556 398 l 1,8,-1
 556 313 l 1,9,-1
 205 313 l 1,10,-1
 205 87 l 1,11,-1
 613 87 l 1,0,-1
EndSplineSet
Substitution2: "'ss01' Style Set 1 lookup 42 subtable" E.ss01
Substitution2: "'salt' Stylistic Alternatives lookup 41 subtable" E.ss01
Substitution2: "'c2sc' Capitals to Small Capitals lookup 36 subtable" e.sc
AlternateSubs2: "'aalt' Access All Alternates lookup 1 subtable" e.sc E.ss01
EndChar

StartChar: F
Encoding: 70 70 8
Width: 635
Flags: W
LayerCount: 2
Fore
SplineSet
205 613 m 1,0,-1
 205 369 l 1,1,-1
 556 369 l 1,2,-1
 556 283 l 1,3,-1
 205 283 l 1,4,-1
 205 0 l 1,5,-1
 105 0 l 1,6,-1
 105 700 l 1,7,-1
 599 700 l 1,8,-1
 599 613 l 1,9,-1
 205 613 l 1,0,-1
EndSplineSet
Substitution2: "'ss01' Style Set 1 lookup 42 subtable" F.ss01
Substitution2: "'salt' Stylistic Alternatives lookup 41 subtable" F.ss01
Substitution2: "'c2sc' Capitals to Small Capitals lookup 36 subtable" f.sc
AlternateSubs2: "'aalt' Access All Alternates lookup 1 subtable" f.sc F.ss01
EndChar

StartChar: G
Encoding: 71 71 9
Width: 772
GlyphClass: 2
Flags: W
AnchorPoint: "Anchor-14" 0 0 basechar 0
AnchorPoint: "Anchor-13" 0 0 basechar 0
AnchorPoint: "Anchor-12" 410 700 basechar 0
AnchorPoint: "Anchor-11" 0 0 basechar 0
AnchorPoint: "Anchor-10" 405 0 basechar 0
LayerCount: 2
Fore
SplineSet
590 354 m 1,0,-1
 686 354 l 1,1,-1
 686 81 l 1,2,3
 634 38 634 38 565 15 c 128,-1,4
 496 -8 496 -8 421 -8 c 0,5,6
 315 -8 315 -8 230 38.5 c 128,-1,7
 145 85 145 85 96.5 166.5 c 128,-1,8
 48 248 48 248 48 350 c 256,9,10
 48 452 48 452 96.5 534 c 128,-1,11
 145 616 145 616 230.5 662 c 128,-1,12
 316 708 316 708 423 708 c 0,13,14
 507 708 507 708 575.5 680.5 c 128,-1,15
 644 653 644 653 692 600 c 1,16,-1
 630 538 l 1,17,18
 546 619 546 619 427 619 c 0,19,20
 347 619 347 619 283.5 584.5 c 128,-1,21
 220 550 220 550 184 488.5 c 128,-1,22
 148 427 148 427 148 350 c 0,23,24
 148 274 148 274 184 212.5 c 128,-1,25
 220 151 220 151 283.5 116 c 128,-1,26
 347 81 347 81 426 81 c 0,27,28
 520 81 520 81 590 126 c 1,29,-1
 590 354 l 1,0,-1
EndSplineSet
Substitution2: "'ss01' Style Set 1 lookup 42 subtable" G.ss01
Substitution2: "'salt' Stylistic Alternatives lookup 41 subtable" G.ss01
Substitution2: "'c2sc' Capitals to Small Capitals lookup 36 subtable" g.sc
AlternateSubs2: "'aalt' Access All Alternates lookup 1 subtable" g.sc G.ss01
EndChar

StartChar: H
Encoding: 72 72 10
Width: 812
GlyphClass: 2
Flags: W
AnchorPoint: "Anchor-14" 0 0 basechar 0
AnchorPoint: "Anchor-13" 405 553 basechar 0
AnchorPoint: "Anchor-12" 405 700 basechar 0
AnchorPoint: "Anchor-11" 0 0 basechar 0
AnchorPoint: "Anchor-10" 405 0 basechar 0
LayerCount: 2
Fore
SplineSet
707 700 m 1,0,-1
 707 0 l 1,1,-1
 607 0 l 1,2,-1
 607 312 l 1,3,-1
 205 312 l 1,4,-1
 205 0 l 1,5,-1
 105 0 l 1,6,-1
 105 700 l 1,7,-1
 205 700 l 1,8,-1
 205 399 l 1,9,-1
 607 399 l 1,10,-1
 607 700 l 1,11,-1
 707 700 l 1,0,-1
EndSplineSet
Substitution2: "'c2sc' Capitals to Small Capitals lookup 36 subtable" h.sc
Substitution2: "'aalt' Access All Alternates lookup 0 subtable" h.sc
EndChar

StartChar: I
Encoding: 73 73 11
Width: 310
GlyphClass: 2
Flags: W
AnchorPoint: "Anchor-14" 0 0 basechar 0
AnchorPoint: "Anchor-13" 0 0 basechar 0
AnchorPoint: "Anchor-12" 155 700 basechar 0
AnchorPoint: "Anchor-11" 205 0 basechar 0
AnchorPoint: "Anchor-10" 155 0 basechar 0
LayerCount: 2
Fore
SplineSet
105 700 m 1,0,-1
 205 700 l 1,1,-1
 205 0 l 1,2,-1
 105 0 l 1,3,-1
 105 700 l 1,0,-1
EndSplineSet
Substitution2: "'ss01' Style Set 1 lookup 42 subtable" I.ss01
Substitution2: "'salt' Stylistic Alternatives lookup 41 subtable" I.ss01
Substitution2: "'c2sc' Capitals to Small Capitals lookup 36 subtable" i.sc
AlternateSubs2: "'aalt' Access All Alternates lookup 1 subtable" i.sc I.ss01
EndChar

StartChar: J
Encoding: 74 74 12
Width: 513
GlyphClass: 2
Flags: W
AnchorPoint: "Anchor-14" 0 0 basechar 0
AnchorPoint: "Anchor-13" 0 0 basechar 0
AnchorPoint: "Anchor-12" 239 700 basechar 0
AnchorPoint: "Anchor-11" 0 0 basechar 0
AnchorPoint: "Anchor-10" 0 0 basechar 0
LayerCount: 2
Fore
SplineSet
78 18.5 m 128,-1,1
 24 45 24 45 -9 93 c 1,2,-1
 49 161 l 1,3,4
 107 78 107 78 195 78 c 0,5,6
 254 78 254 78 284.5 114 c 128,-1,7
 315 150 315 150 315 220 c 2,8,-1
 315 613 l 1,9,-1
 62 613 l 1,10,-1
 62 700 l 1,11,-1
 414 700 l 1,12,-1
 414 225 l 2,13,14
 414 109 414 109 358.5 50.5 c 128,-1,15
 303 -8 303 -8 195 -8 c 0,16,0
 132 -8 132 -8 78 18.5 c 128,-1,1
EndSplineSet
Substitution2: "'ss01' Style Set 1 lookup 42 subtable" J.ss01
Substitution2: "'salt' Stylistic Alternatives lookup 41 subtable" J.ss01
Substitution2: "'c2sc' Capitals to Small Capitals lookup 36 subtable" j.sc
AlternateSubs2: "'aalt' Access All Alternates lookup 1 subtable" j.sc J.ss01
EndChar

StartChar: K
Encoding: 75 75 13
Width: 719
GlyphClass: 2
Flags: W
AnchorPoint: "Anchor-14" 0 0 basechar 0
AnchorPoint: "Anchor-13" 0 0 basechar 0
AnchorPoint: "Anchor-12" 375 700 basechar 0
AnchorPoint: "Anchor-11" 0 0 basechar 0
AnchorPoint: "Anchor-10" 375 0 basechar 0
LayerCount: 2
Fore
SplineSet
333 311 m 1,0,-1
 205 181 l 1,1,-1
 205 0 l 1,2,-1
 105 0 l 1,3,-1
 105 700 l 1,4,-1
 205 700 l 1,5,-1
 205 309 l 1,6,-1
 585 700 l 1,7,-1
 699 700 l 1,8,-1
 400 385 l 1,9,-1
 718 0 l 1,10,-1
 601 0 l 1,11,-1
 333 311 l 1,0,-1
EndSplineSet
Substitution2: "'c2sc' Capitals to Small Capitals lookup 36 subtable" k.sc
Substitution2: "'aalt' Access All Alternates lookup 0 subtable" k.sc
EndChar

StartChar: L
Encoding: 76 76 14
Width: 594
GlyphClass: 2
Flags: W
AnchorPoint: "Anchor-14" 438 700 basechar 0
AnchorPoint: "Anchor-13" 155 376 basechar 0
AnchorPoint: "Anchor-12" 155 700 basechar 0
AnchorPoint: "Anchor-11" 0 0 basechar 0
AnchorPoint: "Anchor-10" 356 0 basechar 0
LayerCount: 2
Fore
SplineSet
105 700 m 1,0,-1
 205 700 l 1,1,-1
 205 87 l 1,2,-1
 584 87 l 1,3,-1
 584 0 l 1,4,-1
 105 0 l 1,5,-1
 105 700 l 1,0,-1
EndSplineSet
Substitution2: "'c2sc' Capitals to Small Capitals lookup 36 subtable" l.sc
Substitution2: "'aalt' Access All Alternates lookup 0 subtable" l.sc
EndChar

StartChar: M
Encoding: 77 77 15
Width: 955
GlyphClass: 2
Flags: W
AnchorPoint: "Anchor-14" 0 0 basechar 0
AnchorPoint: "Anchor-13" 0 0 basechar 0
AnchorPoint: "Anchor-12" 477 700 basechar 0
AnchorPoint: "Anchor-11" 0 0 basechar 0
AnchorPoint: "Anchor-10" 477 0 basechar 0
LayerCount: 2
Fore
SplineSet
754 0 m 1,0,-1
 753 510 l 1,1,-1
 500 85 l 1,2,-1
 454 85 l 1,3,-1
 201 507 l 1,4,-1
 201 0 l 1,5,-1
 105 0 l 1,6,-1
 105 700 l 1,7,-1
 187 700 l 1,8,-1
 479 208 l 1,9,-1
 767 700 l 1,10,-1
 849 700 l 1,11,-1
 850 0 l 1,12,-1
 754 0 l 1,0,-1
EndSplineSet
Substitution2: "'ss01' Style Set 1 lookup 42 subtable" M.ss01
Substitution2: "'salt' Stylistic Alternatives lookup 41 subtable" M.ss01
Substitution2: "'c2sc' Capitals to Small Capitals lookup 36 subtable" m.sc
AlternateSubs2: "'aalt' Access All Alternates lookup 1 subtable" m.sc M.ss01
EndChar

StartChar: N
Encoding: 78 78 16
Width: 812
GlyphClass: 2
Flags: W
AnchorPoint: "Anchor-14" 0 0 basechar 0
AnchorPoint: "Anchor-13" 0 0 basechar 0
AnchorPoint: "Anchor-12" 405 700 basechar 0
AnchorPoint: "Anchor-11" 0 0 basechar 0
AnchorPoint: "Anchor-10" 405 0 basechar 0
LayerCount: 2
Fore
SplineSet
707 700 m 1,0,-1
 707 0 l 1,1,-1
 625 0 l 1,2,-1
 205 522 l 1,3,-1
 205 0 l 1,4,-1
 105 0 l 1,5,-1
 105 700 l 1,6,-1
 187 700 l 1,7,-1
 607 178 l 1,8,-1
 607 700 l 1,9,-1
 707 700 l 1,0,-1
EndSplineSet
Substitution2: "'ss01' Style Set 1 lookup 42 subtable" N.ss01
Substitution2: "'salt' Stylistic Alternatives lookup 41 subtable" N.ss01
Substitution2: "'c2sc' Capitals to Small Capitals lookup 36 subtable" n.sc
AlternateSubs2: "'aalt' Access All Alternates lookup 1 subtable" n.sc N.ss01
EndChar

StartChar: O
Encoding: 79 79 17
Width: 840
GlyphClass: 2
Flags: W
AnchorPoint: "Anchor-14" 638 700 basechar 0
AnchorPoint: "Anchor-13" 421 350 basechar 0
AnchorPoint: "Anchor-12" 421 700 basechar 0
AnchorPoint: "Anchor-11" 498 0 basechar 0
AnchorPoint: "Anchor-10" 421 0 basechar 0
LayerCount: 2
Fore
SplineSet
230 38.5 m 128,-1,1
 145 85 145 85 96.5 167 c 128,-1,2
 48 249 48 249 48 350 c 256,3,4
 48 451 48 451 96.5 533 c 128,-1,5
 145 615 145 615 230 661.5 c 128,-1,6
 315 708 315 708 421 708 c 0,7,8
 526 708 526 708 611 661.5 c 128,-1,9
 696 615 696 615 744 533.5 c 128,-1,10
 792 452 792 452 792 350 c 256,11,12
 792 248 792 248 744 166.5 c 128,-1,13
 696 85 696 85 611 38.5 c 128,-1,14
 526 -8 526 -8 421 -8 c 0,15,0
 315 -8 315 -8 230 38.5 c 128,-1,1
559.5 116 m 128,-1,17
 621 151 621 151 656.5 212.5 c 128,-1,18
 692 274 692 274 692 350 c 256,19,20
 692 426 692 426 656.5 487.5 c 128,-1,21
 621 549 621 549 559.5 584 c 128,-1,22
 498 619 498 619 421 619 c 256,23,24
 344 619 344 619 281.5 584 c 128,-1,25
 219 549 219 549 183.5 487.5 c 128,-1,26
 148 426 148 426 148 350 c 256,27,28
 148 274 148 274 183.5 212.5 c 128,-1,29
 219 151 219 151 281.5 116 c 128,-1,30
 344 81 344 81 421 81 c 256,31,16
 498 81 498 81 559.5 116 c 128,-1,17
EndSplineSet
Substitution2: "Single Substitution lookup 44 subtable" ordmasculine
Substitution2: "'c2sc' Capitals to Small Capitals lookup 36 subtable" o.sc
AlternateSubs2: "'aalt' Access All Alternates lookup 1 subtable" ordmasculine o.sc
EndChar

StartChar: P
Encoding: 80 80 18
Width: 722
Flags: W
LayerCount: 2
Fore
SplineSet
592 635 m 128,-1,1
 670 570 670 570 670 456 c 256,2,3
 670 342 670 342 592 277 c 128,-1,4
 514 212 514 212 378 212 c 2,5,-1
 205 212 l 1,6,-1
 205 0 l 1,7,-1
 105 0 l 1,8,-1
 105 700 l 1,9,-1
 378 700 l 2,10,0
 514 700 514 700 592 635 c 128,-1,1
520 339.5 m 128,-1,12
 570 380 570 380 570 456 c 256,13,14
 570 532 570 532 520 572.5 c 128,-1,15
 470 613 470 613 375 613 c 2,16,-1
 205 613 l 1,17,-1
 205 299 l 1,18,-1
 375 299 l 2,19,11
 470 299 470 299 520 339.5 c 128,-1,12
EndSplineSet
Substitution2: "'c2sc' Capitals to Small Capitals lookup 36 subtable" p.sc
Substitution2: "'aalt' Access All Alternates lookup 0 subtable" p.sc
EndChar

StartChar: Q
Encoding: 81 81 19
Width: 840
GlyphClass: 2
Flags: W
AnchorPoint: "Anchor-14" 0 0 basechar 0
AnchorPoint: "Anchor-13" 0 0 basechar 0
AnchorPoint: "Anchor-12" 421 700 basechar 0
AnchorPoint: "Anchor-11" 0 0 basechar 0
AnchorPoint: "Anchor-10" 0 0 basechar 0
LayerCount: 2
Fore
SplineSet
826 -64 m 1,0,1
 792 -104 792 -104 747 -125 c 128,-1,2
 702 -146 702 -146 650 -146 c 0,3,4
 584 -146 584 -146 526.5 -114.5 c 128,-1,5
 469 -83 469 -83 395 -7 c 1,6,7
 296 -2 296 -2 216.5 46 c 128,-1,8
 137 94 137 94 92.5 173.5 c 128,-1,9
 48 253 48 253 48 350 c 0,10,11
 48 451 48 451 96.5 533 c 128,-1,12
 145 615 145 615 230 661.5 c 128,-1,13
 315 708 315 708 421 708 c 0,14,15
 526 708 526 708 611 661.5 c 128,-1,16
 696 615 696 615 744 533.5 c 128,-1,17
 792 452 792 452 792 350 c 0,18,19
 792 264 792 264 757.5 192 c 128,-1,20
 723 120 723 120 660.5 71 c 128,-1,21
 598 22 598 22 517 3 c 1,22,23
 552 -34 552 -34 584.5 -50.5 c 128,-1,24
 617 -67 617 -67 651 -67 c 0,25,26
 725 -67 725 -67 779 -7 c 1,27,-1
 826 -64 l 1,0,1
183.5 212.5 m 128,-1,29
 219 151 219 151 281.5 116 c 128,-1,30
 344 81 344 81 421 81 c 0,31,32
 497 81 497 81 559 116 c 128,-1,33
 621 151 621 151 656.5 212.5 c 128,-1,34
 692 274 692 274 692 350 c 256,35,36
 692 426 692 426 656.5 487.5 c 128,-1,37
 621 549 621 549 559 584 c 128,-1,38
 497 619 497 619 421 619 c 0,39,40
 344 619 344 619 281.5 584 c 128,-1,41
 219 549 219 549 183.5 487.5 c 128,-1,42
 148 426 148 426 148 350 c 256,43,28
 148 274 148 274 183.5 212.5 c 128,-1,29
EndSplineSet
Substitution2: "'ss01' Style Set 1 lookup 42 subtable" Q.ss01
Substitution2: "'salt' Stylistic Alternatives lookup 41 subtable" Q.ss01
Substitution2: "'c2sc' Capitals to Small Capitals lookup 36 subtable" q.sc
AlternateSubs2: "'aalt' Access All Alternates lookup 1 subtable" q.sc Q.ss01
EndChar

StartChar: R
Encoding: 82 82 20
Width: 727
GlyphClass: 2
Flags: W
AnchorPoint: "Anchor-14" 0 0 basechar 0
AnchorPoint: "Anchor-13" 0 0 basechar 0
AnchorPoint: "Anchor-12" 371 700 basechar 0
AnchorPoint: "Anchor-11" 0 0 basechar 0
AnchorPoint: "Anchor-10" 371 0 basechar 0
LayerCount: 2
Fore
SplineSet
573 0 m 1,0,-1
 422 215 l 1,1,2
 394 213 394 213 378 213 c 2,3,-1
 205 213 l 1,4,-1
 205 0 l 1,5,-1
 105 0 l 1,6,-1
 105 700 l 1,7,-1
 378 700 l 2,8,9
 514 700 514 700 592 635 c 128,-1,10
 670 570 670 570 670 456 c 0,11,12
 670 375 670 375 630 318 c 128,-1,13
 590 261 590 261 516 235 c 1,14,-1
 682 0 l 1,15,-1
 573 0 l 1,0,-1
520 339 m 128,-1,17
 570 380 570 380 570 456 c 256,18,19
 570 532 570 532 520 572.5 c 128,-1,20
 470 613 470 613 375 613 c 2,21,-1
 205 613 l 1,22,-1
 205 298 l 1,23,-1
 375 298 l 2,24,16
 470 298 470 298 520 339 c 128,-1,17
EndSplineSet
Substitution2: "'c2sc' Capitals to Small Capitals lookup 36 subtable" r.sc
Substitution2: "'aalt' Access All Alternates lookup 0 subtable" r.sc
EndChar

StartChar: S
Encoding: 83 83 21
Width: 621
GlyphClass: 2
Flags: W
AnchorPoint: "Anchor-14" 0 0 basechar 0
AnchorPoint: "Anchor-13" 0 0 basechar 0
AnchorPoint: "Anchor-12" 322 700 basechar 0
AnchorPoint: "Anchor-11" 0 0 basechar 0
AnchorPoint: "Anchor-10" 322 0 basechar 0
LayerCount: 2
Fore
SplineSet
156.5 16.5 m 128,-1,1
 83 41 83 41 41 80 c 1,2,-1
 78 158 l 1,3,4
 118 122 118 122 180.5 99.5 c 128,-1,5
 243 77 243 77 309 77 c 0,6,7
 396 77 396 77 439 106.5 c 128,-1,8
 482 136 482 136 482 185 c 0,9,10
 482 221 482 221 458.5 243.5 c 128,-1,11
 435 266 435 266 400.5 278 c 128,-1,12
 366 290 366 290 303 305 c 0,13,14
 224 324 224 324 175.5 343 c 128,-1,15
 127 362 127 362 92.5 401.5 c 128,-1,16
 58 441 58 441 58 508 c 0,17,18
 58 564 58 564 87.5 609 c 128,-1,19
 117 654 117 654 177 681 c 128,-1,20
 237 708 237 708 326 708 c 0,21,22
 388 708 388 708 448 692 c 128,-1,23
 508 676 508 676 551 646 c 1,24,-1
 518 566 l 1,25,26
 474 594 474 594 424 608.5 c 128,-1,27
 374 623 374 623 326 623 c 0,28,29
 241 623 241 623 198.5 592 c 128,-1,30
 156 561 156 561 156 512 c 0,31,32
 156 476 156 476 180 453.5 c 128,-1,33
 204 431 204 431 239.5 418.5 c 128,-1,34
 275 406 275 406 336 392 c 0,35,36
 415 373 415 373 463 354 c 128,-1,37
 511 335 511 335 545.5 296 c 128,-1,38
 580 257 580 257 580 191 c 0,39,40
 580 136 580 136 550 90.5 c 128,-1,41
 520 45 520 45 459 18.5 c 128,-1,42
 398 -8 398 -8 309 -8 c 0,43,0
 230 -8 230 -8 156.5 16.5 c 128,-1,1
EndSplineSet
Substitution2: "'c2sc' Capitals to Small Capitals lookup 36 subtable" s.sc
Substitution2: "'aalt' Access All Alternates lookup 0 subtable" s.sc
EndChar

StartChar: T
Encoding: 84 84 22
Width: 587
GlyphClass: 2
Flags: W
AnchorPoint: "Anchor-14" 0 0 basechar 0
AnchorPoint: "Anchor-13" 293 339 basechar 0
AnchorPoint: "Anchor-12" 293 700 basechar 0
AnchorPoint: "Anchor-11" 0 0 basechar 0
AnchorPoint: "Anchor-10" 293 0 basechar 0
LayerCount: 2
Fore
SplineSet
244 613 m 1,0,-1
 4 613 l 1,1,-1
 4 700 l 1,2,-1
 583 700 l 1,3,-1
 583 613 l 1,4,-1
 343 613 l 1,5,-1
 343 0 l 1,6,-1
 244 0 l 1,7,-1
 244 613 l 1,0,-1
EndSplineSet
Substitution2: "'ss01' Style Set 1 lookup 42 subtable" T.ss01
Substitution2: "'salt' Stylistic Alternatives lookup 41 subtable" T.ss01
Substitution2: "'c2sc' Capitals to Small Capitals lookup 36 subtable" t.sc
AlternateSubs2: "'aalt' Access All Alternates lookup 1 subtable" t.sc T.ss01
EndChar

StartChar: U
Encoding: 85 85 23
Width: 791
GlyphClass: 2
Flags: W
AnchorPoint: "Anchor-14" 660 700 basechar 0
AnchorPoint: "Anchor-13" 0 0 basechar 0
AnchorPoint: "Anchor-12" 396 700 basechar 0
AnchorPoint: "Anchor-11" 597 0 basechar 0
AnchorPoint: "Anchor-10" 396 0 basechar 0
LayerCount: 2
Fore
SplineSet
177 72 m 128,-1,1
 99 152 99 152 99 302 c 2,2,-1
 99 700 l 1,3,-1
 199 700 l 1,4,-1
 199 306 l 2,5,6
 199 81 199 81 396 81 c 0,7,8
 492 81 492 81 543 136.5 c 128,-1,9
 594 192 594 192 594 306 c 2,10,-1
 594 700 l 1,11,-1
 691 700 l 1,12,-1
 691 302 l 2,13,14
 691 151 691 151 613 71.5 c 128,-1,15
 535 -8 535 -8 395 -8 c 256,16,0
 255 -8 255 -8 177 72 c 128,-1,1
EndSplineSet
Substitution2: "'ss01' Style Set 1 lookup 42 subtable" U.ss01
Substitution2: "'salt' Stylistic Alternatives lookup 41 subtable" U.ss01
Substitution2: "'c2sc' Capitals to Small Capitals lookup 36 subtable" u.sc
AlternateSubs2: "'aalt' Access All Alternates lookup 1 subtable" u.sc U.ss01
EndChar

StartChar: V
Encoding: 86 86 24
Width: 712
Flags: W
LayerCount: 2
Fore
SplineSet
713 700 m 1,0,-1
 406 0 l 1,1,-1
 307 0 l 1,2,-1
 -1 700 l 1,3,-1
 107 700 l 1,4,-1
 359 125 l 1,5,-1
 613 700 l 1,6,-1
 713 700 l 1,0,-1
EndSplineSet
Substitution2: "'c2sc' Capitals to Small Capitals lookup 36 subtable" v.sc
Substitution2: "'aalt' Access All Alternates lookup 0 subtable" v.sc
EndChar

StartChar: W
Encoding: 87 87 25
Width: 1126
GlyphClass: 2
Flags: W
AnchorPoint: "Anchor-14" 0 0 basechar 0
AnchorPoint: "Anchor-13" 0 0 basechar 0
AnchorPoint: "Anchor-12" 564 700 basechar 0
AnchorPoint: "Anchor-11" 0 0 basechar 0
AnchorPoint: "Anchor-10" 564 0 basechar 0
LayerCount: 2
Fore
SplineSet
1094 700 m 1,0,-1
 860 0 l 1,1,-1
 755 0 l 1,2,-1
 564 559 l 1,3,-1
 373 0 l 1,4,-1
 266 0 l 1,5,-1
 32 700 l 1,6,-1
 135 700 l 1,7,-1
 324 131 l 1,8,-1
 521 700 l 1,9,-1
 613 700 l 1,10,-1
 806 128 l 1,11,-1
 999 700 l 1,12,-1
 1094 700 l 1,0,-1
EndSplineSet
Substitution2: "'ss01' Style Set 1 lookup 42 subtable" W.ss01
Substitution2: "'salt' Stylistic Alternatives lookup 41 subtable" W.ss01
Substitution2: "'c2sc' Capitals to Small Capitals lookup 36 subtable" w.sc
AlternateSubs2: "'aalt' Access All Alternates lookup 1 subtable" w.sc W.ss01
EndChar

StartChar: X
Encoding: 88 88 26
Width: 673
Flags: W
LayerCount: 2
Fore
SplineSet
545 0 m 1,0,-1
 335 289 l 1,1,-1
 128 0 l 1,2,-1
 13 0 l 1,3,-1
 276 359 l 1,4,-1
 29 700 l 1,5,-1
 143 700 l 1,6,-1
 339 431 l 1,7,-1
 533 700 l 1,8,-1
 642 700 l 1,9,-1
 395 362 l 1,10,-1
 660 0 l 1,11,-1
 545 0 l 1,0,-1
EndSplineSet
Substitution2: "'c2sc' Capitals to Small Capitals lookup 36 subtable" x.sc
Substitution2: "'aalt' Access All Alternates lookup 0 subtable" x.sc
EndChar

StartChar: Y
Encoding: 89 89 27
Width: 647
GlyphClass: 2
Flags: W
AnchorPoint: "Anchor-14" 0 0 basechar 0
AnchorPoint: "Anchor-13" 321 249 basechar 0
AnchorPoint: "Anchor-12" 324 700 basechar 0
AnchorPoint: "Anchor-11" 0 0 basechar 0
AnchorPoint: "Anchor-10" 324 0 basechar 0
LayerCount: 2
Fore
SplineSet
373 242 m 1,0,-1
 373 0 l 1,1,-1
 274 0 l 1,2,-1
 274 244 l 1,3,-1
 -4 700 l 1,4,-1
 103 700 l 1,5,-1
 327 331 l 1,6,-1
 552 700 l 1,7,-1
 651 700 l 1,8,-1
 373 242 l 1,0,-1
EndSplineSet
Substitution2: "'ss01' Style Set 1 lookup 42 subtable" Y.ss01
Substitution2: "'salt' Stylistic Alternatives lookup 41 subtable" Y.ss01
Substitution2: "'c2sc' Capitals to Small Capitals lookup 36 subtable" y.sc
AlternateSubs2: "'aalt' Access All Alternates lookup 1 subtable" y.sc Y.ss01
EndChar

StartChar: Z
Encoding: 90 90 28
Width: 657
GlyphClass: 2
Flags: W
AnchorPoint: "Anchor-14" 0 0 basechar 0
AnchorPoint: "Anchor-13" 0 0 basechar 0
AnchorPoint: "Anchor-12" 336 700 basechar 0
AnchorPoint: "Anchor-11" 0 0 basechar 0
AnchorPoint: "Anchor-10" 342 0 basechar 0
LayerCount: 2
Fore
SplineSet
628 87 m 1,0,-1
 628 0 l 1,1,-1
 43 0 l 1,2,-1
 43 68 l 1,3,-1
 483 613 l 1,4,-1
 50 613 l 1,5,-1
 50 700 l 1,6,-1
 615 700 l 1,7,-1
 615 632 l 1,8,-1
 177 87 l 1,9,-1
 628 87 l 1,0,-1
EndSplineSet
Substitution2: "'ss01' Style Set 1 lookup 42 subtable" Z.ss01
Substitution2: "'salt' Stylistic Alternatives lookup 41 subtable" Z.ss01
Substitution2: "'c2sc' Capitals to Small Capitals lookup 36 subtable" z.sc
AlternateSubs2: "'aalt' Access All Alternates lookup 1 subtable" z.sc Z.ss01
EndChar

StartChar: a
Encoding: 97 97 29
Width: 598
GlyphClass: 2
Flags: W
AnchorPoint: "Anchor-14" 0 0 basechar 0
AnchorPoint: "Anchor-13" 0 0 basechar 0
AnchorPoint: "Anchor-12" 291 530 basechar 0
AnchorPoint: "Anchor-11" 511 0 basechar 0
AnchorPoint: "Anchor-10" 289 0 basechar 0
LayerCount: 2
Fore
SplineSet
452.5 481 m 128,-1,1
 511 427 511 427 511 320 c 2,2,-1
 511 0 l 1,3,-1
 420 0 l 1,4,-1
 420 70 l 1,5,6
 396 33 396 33 351.5 13.5 c 128,-1,7
 307 -6 307 -6 246 -6 c 0,8,9
 157 -6 157 -6 103.5 37 c 128,-1,10
 50 80 50 80 50 150 c 256,11,12
 50 220 50 220 101 262.5 c 128,-1,13
 152 305 152 305 263 305 c 2,14,-1
 415 305 l 1,15,-1
 415 324 l 2,16,17
 415 386 415 386 379 419 c 128,-1,18
 343 452 343 452 273 452 c 0,19,20
 226 452 226 452 181 436.5 c 128,-1,21
 136 421 136 421 105 395 c 1,22,-1
 65 467 l 1,23,24
 106 500 106 500 163 517.5 c 128,-1,25
 220 535 220 535 284 535 c 0,26,0
 394 535 394 535 452.5 481 c 128,-1,1
357 92.5 m 128,-1,28
 397 117 397 117 415 162 c 1,29,-1
 415 236 l 1,30,-1
 267 236 l 2,31,32
 145 236 145 236 145 154 c 0,33,34
 145 114 145 114 176 91 c 128,-1,35
 207 68 207 68 262 68 c 256,36,27
 317 68 317 68 357 92.5 c 128,-1,28
EndSplineSet
Substitution2: "Single Substitution lookup 44 subtable" ordfeminine
Substitution2: "'ss01' Style Set 1 lookup 42 subtable" a.ss01
Substitution2: "'salt' Stylistic Alternatives lookup 41 subtable" a.ss01
Substitution2: "'smcp' Lowercase to Small Capitals lookup 37 subtable" a.sc
AlternateSubs2: "'aalt' Access All Alternates lookup 1 subtable" ordfeminine a.sc a.ss01
EndChar

StartChar: b
Encoding: 98 98 30
Width: 682
Flags: W
LayerCount: 2
Fore
SplineSet
510 501 m 128,-1,1
 571 467 571 467 605.5 406 c 128,-1,2
 640 345 640 345 640 265 c 256,3,4
 640 185 640 185 605.5 123.5 c 128,-1,5
 571 62 571 62 510 28 c 128,-1,6
 449 -6 449 -6 372 -6 c 0,7,8
 313 -6 313 -6 264 17 c 128,-1,9
 215 40 215 40 183 84 c 1,10,-1
 183 0 l 1,11,-1
 91 0 l 1,12,-1
 91 742 l 1,13,-1
 187 742 l 1,14,-1
 187 450 l 1,15,16
 219 492 219 492 267 513.5 c 128,-1,17
 315 535 315 535 372 535 c 0,18,0
 449 535 449 535 510 501 c 128,-1,1
455.5 101.5 m 128,-1,20
 496 125 496 125 519.5 167.5 c 128,-1,21
 543 210 543 210 543 265 c 256,22,23
 543 320 543 320 519.5 362.5 c 128,-1,24
 496 405 496 405 455.5 428 c 128,-1,25
 415 451 415 451 364 451 c 0,26,27
 314 451 314 451 273 428 c 128,-1,28
 232 405 232 405 209 362.5 c 128,-1,29
 186 320 186 320 186 265 c 256,30,31
 186 210 186 210 209 167.5 c 128,-1,32
 232 125 232 125 273 101.5 c 128,-1,33
 314 78 314 78 364 78 c 0,34,19
 415 78 415 78 455.5 101.5 c 128,-1,20
EndSplineSet
Substitution2: "'smcp' Lowercase to Small Capitals lookup 37 subtable" b.sc
Substitution2: "'aalt' Access All Alternates lookup 0 subtable" b.sc
EndChar

StartChar: c
Encoding: 99 99 31
Width: 571
GlyphClass: 2
Flags: W
AnchorPoint: "Anchor-14" 0 0 basechar 0
AnchorPoint: "Anchor-13" 0 0 basechar 0
AnchorPoint: "Anchor-12" 303 530 basechar 0
AnchorPoint: "Anchor-11" 0 0 basechar 0
AnchorPoint: "Anchor-10" 300 0 basechar 0
LayerCount: 2
Fore
SplineSet
177.5 29 m 128,-1,1
 114 64 114 64 78 125.5 c 128,-1,2
 42 187 42 187 42 265 c 256,3,4
 42 343 42 343 78 404.5 c 128,-1,5
 114 466 114 466 177.5 500.5 c 128,-1,6
 241 535 241 535 322 535 c 0,7,8
 394 535 394 535 450.5 506 c 128,-1,9
 507 477 507 477 538 422 c 1,10,-1
 465 375 l 1,11,12
 440 413 440 413 403 432 c 128,-1,13
 366 451 366 451 321 451 c 0,14,15
 269 451 269 451 227.5 428 c 128,-1,16
 186 405 186 405 162.5 362.5 c 128,-1,17
 139 320 139 320 139 265 c 0,18,19
 139 209 139 209 162.5 166.5 c 128,-1,20
 186 124 186 124 227.5 101 c 128,-1,21
 269 78 269 78 321 78 c 0,22,23
 366 78 366 78 403 97 c 128,-1,24
 440 116 440 116 465 154 c 1,25,-1
 538 108 l 1,26,27
 507 53 507 53 450.5 23.5 c 128,-1,28
 394 -6 394 -6 322 -6 c 0,29,0
 241 -6 241 -6 177.5 29 c 128,-1,1
EndSplineSet
Substitution2: "'smcp' Lowercase to Small Capitals lookup 37 subtable" c.sc
Substitution2: "'aalt' Access All Alternates lookup 0 subtable" c.sc
EndChar

StartChar: d
Encoding: 100 100 32
Width: 682
GlyphClass: 2
Flags: W
AnchorPoint: "Anchor-14" 680 742 basechar 0
AnchorPoint: "Anchor-13" 484 634 basechar 0
AnchorPoint: "Anchor-12" 0 0 basechar 0
AnchorPoint: "Anchor-11" 0 0 basechar 0
AnchorPoint: "Anchor-10" 347 0 basechar 0
LayerCount: 2
Fore
SplineSet
591 742 m 1,0,-1
 591 0 l 1,1,-1
 499 0 l 1,2,-1
 499 84 l 1,3,4
 467 40 467 40 418 17 c 128,-1,5
 369 -6 369 -6 310 -6 c 0,6,7
 233 -6 233 -6 172 28 c 128,-1,8
 111 62 111 62 76.5 123.5 c 128,-1,9
 42 185 42 185 42 265 c 256,10,11
 42 345 42 345 76.5 406 c 128,-1,12
 111 467 111 467 172 501 c 128,-1,13
 233 535 233 535 310 535 c 0,14,15
 367 535 367 535 415 513.5 c 128,-1,16
 463 492 463 492 495 450 c 1,17,-1
 495 742 l 1,18,-1
 591 742 l 1,0,-1
409 101.5 m 128,-1,20
 450 125 450 125 473 167.5 c 128,-1,21
 496 210 496 210 496 265 c 256,22,23
 496 320 496 320 473 362.5 c 128,-1,24
 450 405 450 405 409 428 c 128,-1,25
 368 451 368 451 318 451 c 0,26,27
 267 451 267 451 226.5 428 c 128,-1,28
 186 405 186 405 162.5 362.5 c 128,-1,29
 139 320 139 320 139 265 c 256,30,31
 139 210 139 210 162.5 167.5 c 128,-1,32
 186 125 186 125 226.5 101.5 c 128,-1,33
 267 78 267 78 318 78 c 0,34,19
 368 78 368 78 409 101.5 c 128,-1,20
EndSplineSet
Substitution2: "'smcp' Lowercase to Small Capitals lookup 37 subtable" d.sc
Substitution2: "'aalt' Access All Alternates lookup 0 subtable" d.sc
EndChar

StartChar: e
Encoding: 101 101 33
Width: 612
GlyphClass: 2
Flags: W
AnchorPoint: "Anchor-14" 0 0 basechar 0
AnchorPoint: "Anchor-13" 0 0 basechar 0
AnchorPoint: "Anchor-12" 307 530 basechar 0
AnchorPoint: "Anchor-11" 519 0 basechar 0
AnchorPoint: "Anchor-10" 307 0 basechar 0
LayerCount: 2
Fore
SplineSet
568 233 m 1,1,-1
 138 233 l 1,2,3
 147 163 147 163 199.5 120.5 c 128,-1,4
 252 78 252 78 330 78 c 0,5,6
 425 78 425 78 483 142 c 1,7,-1
 536 80 l 1,8,9
 500 38 500 38 446.5 16 c 128,-1,10
 393 -6 393 -6 327 -6 c 0,11,12
 243 -6 243 -6 178 28.5 c 128,-1,13
 113 63 113 63 77.5 125 c 128,-1,14
 42 187 42 187 42 265 c 0,15,16
 42 342 42 342 76.5 404 c 128,-1,17
 111 466 111 466 171.5 500.5 c 128,-1,18
 232 535 232 535 308 535 c 256,19,20
 384 535 384 535 443.5 500.5 c 128,-1,21
 503 466 503 466 536.5 404 c 128,-1,22
 570 342 570 342 570 262 c 0,23,0
 570 251 570 251 568 233 c 1,1,-1
192.5 412 m 128,-1,25
 146 370 146 370 138 302 c 1,26,-1
 478 302 l 1,27,28
 470 369 470 369 423.5 411.5 c 128,-1,29
 377 454 377 454 308 454 c 256,30,24
 239 454 239 454 192.5 412 c 128,-1,25
EndSplineSet
Substitution2: "'ss01' Style Set 1 lookup 42 subtable" e.ss01
Substitution2: "'salt' Stylistic Alternatives lookup 41 subtable" e.ss01
Substitution2: "'smcp' Lowercase to Small Capitals lookup 37 subtable" e.sc
AlternateSubs2: "'aalt' Access All Alternates lookup 1 subtable" e.sc e.ss01
EndChar

StartChar: f
Encoding: 102 102 34
Width: 353
Flags: W
LayerCount: 2
Fore
SplineSet
199 576 m 2,1,-1
 199 530 l 1,2,-1
 353 530 l 1,3,-1
 353 451 l 1,4,-1
 201 451 l 1,5,-1
 201 0 l 1,6,-1
 105 0 l 1,7,-1
 105 451 l 1,8,-1
 15 451 l 1,9,-1
 15 530 l 1,10,-1
 105 530 l 1,11,-1
 105 577 l 2,12,13
 105 656 105 656 151 702 c 128,-1,14
 197 748 197 748 280 748 c 0,15,16
 312 748 312 748 340 740 c 128,-1,17
 368 732 368 732 388 717 c 1,18,-1
 359 644 l 1,19,20
 326 669 326 669 285 669 c 0,21,0
 199 669 199 669 199 576 c 2,1,-1
EndSplineSet
Substitution2: "'ss01' Style Set 1 lookup 42 subtable" f.ss01
Substitution2: "'salt' Stylistic Alternatives lookup 41 subtable" f.ss01
Substitution2: "'smcp' Lowercase to Small Capitals lookup 37 subtable" f.sc
AlternateSubs2: "'aalt' Access All Alternates lookup 1 subtable" f.sc f.ss01
EndChar

StartChar: g
Encoding: 103 103 35
Width: 690
GlyphClass: 2
Flags: W
AnchorPoint: "Anchor-14" 0 0 basechar 0
AnchorPoint: "Anchor-13" 0 0 basechar 0
AnchorPoint: "Anchor-12" 329 530 basechar 0
AnchorPoint: "Anchor-11" 0 0 basechar 0
AnchorPoint: "Anchor-10" 0 0 basechar 0
LayerCount: 2
Fore
SplineSet
598 530 m 1,0,-1
 598 72 l 2,1,2
 598 -67 598 -67 529 -133.5 c 128,-1,3
 460 -200 460 -200 323 -200 c 0,4,5
 248 -200 248 -200 180 -179.5 c 128,-1,6
 112 -159 112 -159 70 -121 c 1,7,-1
 116 -47 l 1,8,9
 153 -79 153 -79 207.5 -97.5 c 128,-1,10
 262 -116 262 -116 320 -116 c 0,11,12
 413 -116 413 -116 457.5 -72 c 128,-1,13
 502 -28 502 -28 502 62 c 2,14,-1
 502 104 l 1,15,16
 468 63 468 63 418.5 42.5 c 128,-1,17
 369 22 369 22 311 22 c 0,18,19
 235 22 235 22 173.5 54.5 c 128,-1,20
 112 87 112 87 77 145.5 c 128,-1,21
 42 204 42 204 42 279 c 256,22,23
 42 354 42 354 77 412.5 c 128,-1,24
 112 471 112 471 173.5 503 c 128,-1,25
 235 535 235 535 311 535 c 0,26,27
 371 535 371 535 422.5 513 c 128,-1,28
 474 491 474 491 507 448 c 1,29,-1
 507 530 l 1,30,-1
 598 530 l 1,0,-1
415.5 128 m 128,-1,32
 457 150 457 150 480.5 189.5 c 128,-1,33
 504 229 504 229 504 279 c 0,34,35
 504 356 504 356 453 403.5 c 128,-1,36
 402 451 402 451 322 451 c 0,37,38
 241 451 241 451 190 403.5 c 128,-1,39
 139 356 139 356 139 279 c 0,40,41
 139 229 139 229 162.5 189.5 c 128,-1,42
 186 150 186 150 227.5 128 c 128,-1,43
 269 106 269 106 322 106 c 0,44,31
 374 106 374 106 415.5 128 c 128,-1,32
EndSplineSet
Substitution2: "'smcp' Lowercase to Small Capitals lookup 37 subtable" g.sc
Substitution2: "'aalt' Access All Alternates lookup 0 subtable" g.sc
EndChar

StartChar: h
Encoding: 104 104 36
Width: 681
GlyphClass: 2
Flags: W
AnchorPoint: "Anchor-14" 258 530 basechar 0
AnchorPoint: "Anchor-13" 198 634 basechar 0
AnchorPoint: "Anchor-12" 139 742 basechar 0
AnchorPoint: "Anchor-11" 0 0 basechar 0
AnchorPoint: "Anchor-10" 343 0 basechar 0
LayerCount: 2
Fore
SplineSet
534.5 476.5 m 128,-1,1
 594 418 594 418 594 305 c 2,2,-1
 594 0 l 1,3,-1
 498 0 l 1,4,-1
 498 294 l 2,5,6
 498 371 498 371 461 410 c 128,-1,7
 424 449 424 449 355 449 c 0,8,9
 277 449 277 449 232 403.5 c 128,-1,10
 187 358 187 358 187 273 c 2,11,-1
 187 0 l 1,12,-1
 91 0 l 1,13,-1
 91 742 l 1,14,-1
 187 742 l 1,15,-1
 187 455 l 1,16,17
 217 493 217 493 265.5 514 c 128,-1,18
 314 535 314 535 374 535 c 0,19,0
 475 535 475 535 534.5 476.5 c 128,-1,1
EndSplineSet
Substitution2: "'smcp' Lowercase to Small Capitals lookup 37 subtable" h.sc
Substitution2: "'aalt' Access All Alternates lookup 0 subtable" h.sc
EndChar

StartChar: i
Encoding: 105 105 37
Width: 279
GlyphClass: 2
Flags: W
AnchorPoint: "Anchor-14" 0 0 basechar 0
AnchorPoint: "Anchor-13" 0 0 basechar 0
AnchorPoint: "Anchor-12" 139 709 basechar 0
AnchorPoint: "Anchor-11" 187 0 basechar 0
AnchorPoint: "Anchor-10" 139 0 basechar 0
LayerCount: 2
Fore
SplineSet
92.5 650 m 0,0,1
 74 668 74 668 74 694 c 256,2,3
 74 720 74 720 92.5 738.5 c 0,4,5
 111 757 111 757 139 757 c 256,6,7
 167 757 167 757 185.5 739.5 c 0,8,9
 204 722 204 722 204 696 c 0,10,11
 204 669 204 669 185.5 650.5 c 0,12,13
 167 632 167 632 139 632 c 256,14,15
 111 632 111 632 92.5 650 c 0,0,1
91 530 m 1,16,-1
 187 530 l 1,17,-1
 187 0 l 1,18,-1
 91 0 l 1,19,-1
 91 530 l 1,16,-1
EndSplineSet
Substitution2: "Single Substitution lookup 43 subtable" dotlessi
Substitution2: "'smcp' Lowercase to Small Capitals lookup 37 subtable" i.sc
Substitution2: "'locl' Localized Forms in Latin lookup 16 subtable" i.loclTRK
Substitution2: "'locl' Localized Forms in Latin lookup 15 subtable" i.loclTRK
Substitution2: "'locl' Localized Forms in Latin lookup 14 subtable" i.loclTRK
Substitution2: "'locl' Localized Forms in Latin lookup 13 subtable" i.loclTRK
Substitution2: "'locl' Localized Forms in Latin lookup 12 subtable" i.loclTRK
AlternateSubs2: "'aalt' Access All Alternates lookup 1 subtable" dotlessi i.loclTRK i.sc
EndChar

StartChar: j
Encoding: 106 106 38
Width: 284
GlyphClass: 2
Flags: W
AnchorPoint: "Anchor-14" 0 0 basechar 0
AnchorPoint: "Anchor-13" 0 0 basechar 0
AnchorPoint: "Anchor-12" 144 709 basechar 0
AnchorPoint: "Anchor-11" 0 0 basechar 0
AnchorPoint: "Anchor-10" 0 0 basechar 0
LayerCount: 2
Fore
SplineSet
97.5 650 m 0,0,1
 79 668 79 668 79 694 c 256,2,3
 79 720 79 720 97.5 738.5 c 0,4,5
 116 757 116 757 144 757 c 256,6,7
 172 757 172 757 190.5 739.5 c 0,8,9
 209 722 209 722 209 696 c 0,10,11
 209 669 209 669 190.5 650.5 c 0,12,13
 172 632 172 632 144 632 c 256,14,15
 116 632 116 632 97.5 650 c 0,0,1
-42 -192 m 0,16,17
 -72 -184 -72 -184 -92 -168 c 1,18,-1
 -61 -94 l 1,19,20
 -31 -119 -31 -119 17 -119 c 0,21,22
 55 -119 55 -119 75.5 -95.5 c 0,23,24
 96 -72 96 -72 96 -26 c 2,25,-1
 96 530 l 1,26,-1
 192 530 l 1,27,-1
 192 -24 l 2,28,29
 192 -106 192 -106 148 -153 c 0,30,31
 104 -200 104 -200 23 -200 c 0,32,33
 -12 -200 -12 -200 -42 -192 c 0,16,17
EndSplineSet
Substitution2: "Single Substitution lookup 43 subtable" uni0237
Substitution2: "'smcp' Lowercase to Small Capitals lookup 37 subtable" j.sc
AlternateSubs2: "'aalt' Access All Alternates lookup 1 subtable" uni0237 j.sc
EndChar

StartChar: k
Encoding: 107 107 39
Width: 616
GlyphClass: 2
Flags: W
AnchorPoint: "Anchor-14" 253 530 basechar 0
AnchorPoint: "Anchor-13" 0 0 basechar 0
AnchorPoint: "Anchor-12" 139 742 basechar 0
AnchorPoint: "Anchor-11" 0 0 basechar 0
AnchorPoint: "Anchor-10" 313 0 basechar 0
LayerCount: 2
Fore
SplineSet
297 247 m 1,0,-1
 187 145 l 1,1,-1
 187 0 l 1,2,-1
 91 0 l 1,3,-1
 91 742 l 1,4,-1
 187 742 l 1,5,-1
 187 266 l 1,6,-1
 476 530 l 1,7,-1
 592 530 l 1,8,-1
 369 311 l 1,9,-1
 614 0 l 1,10,-1
 496 0 l 1,11,-1
 297 247 l 1,0,-1
EndSplineSet
Substitution2: "'smcp' Lowercase to Small Capitals lookup 37 subtable" k.sc
Substitution2: "'aalt' Access All Alternates lookup 0 subtable" k.sc
EndChar

StartChar: l
Encoding: 108 108 40
Width: 279
GlyphClass: 2
Flags: W
AnchorPoint: "Anchor-14" 276 742 basechar 0
AnchorPoint: "Anchor-13" 139 358 basechar 0
AnchorPoint: "Anchor-12" 139 742 basechar 0
AnchorPoint: "Anchor-11" 0 0 basechar 0
AnchorPoint: "Anchor-10" 139 0 basechar 0
LayerCount: 2
Fore
SplineSet
91 742 m 1,0,-1
 187 742 l 1,1,-1
 187 0 l 1,2,-1
 91 0 l 1,3,-1
 91 742 l 1,0,-1
EndSplineSet
Substitution2: "'ss01' Style Set 1 lookup 42 subtable" l.ss01
Substitution2: "'salt' Stylistic Alternatives lookup 41 subtable" l.ss01
Substitution2: "'smcp' Lowercase to Small Capitals lookup 37 subtable" l.sc
AlternateSubs2: "'aalt' Access All Alternates lookup 1 subtable" l.sc l.ss01
EndChar

StartChar: m
Encoding: 109 109 41
Width: 1057
GlyphClass: 2
Flags: W
AnchorPoint: "Anchor-14" 0 0 basechar 0
AnchorPoint: "Anchor-13" 0 0 basechar 0
AnchorPoint: "Anchor-12" 0 0 basechar 0
AnchorPoint: "Anchor-11" 0 0 basechar 0
AnchorPoint: "Anchor-10" 530 0 basechar 0
LayerCount: 2
Fore
SplineSet
912.5 477 m 128,-1,1
 971 419 971 419 971 305 c 2,2,-1
 971 0 l 1,3,-1
 875 0 l 1,4,-1
 875 294 l 2,5,6
 875 371 875 371 839.5 410 c 128,-1,7
 804 449 804 449 738 449 c 0,8,9
 665 449 665 449 622 403.5 c 128,-1,10
 579 358 579 358 579 273 c 2,11,-1
 579 0 l 1,12,-1
 483 0 l 1,13,-1
 483 294 l 2,14,15
 483 371 483 371 447.5 410 c 128,-1,16
 412 449 412 449 346 449 c 0,17,18
 273 449 273 449 230 403.5 c 128,-1,19
 187 358 187 358 187 273 c 2,20,-1
 187 0 l 1,21,-1
 91 0 l 1,22,-1
 91 530 l 1,23,-1
 183 530 l 1,24,-1
 183 451 l 1,25,26
 212 492 212 492 259 513.5 c 128,-1,27
 306 535 306 535 366 535 c 0,28,29
 428 535 428 535 476 510 c 128,-1,30
 524 485 524 485 550 437 c 1,31,32
 580 483 580 483 633.5 509 c 128,-1,33
 687 535 687 535 754 535 c 0,34,0
 854 535 854 535 912.5 477 c 128,-1,1
EndSplineSet
Substitution2: "'smcp' Lowercase to Small Capitals lookup 37 subtable" m.sc
Substitution2: "'aalt' Access All Alternates lookup 0 subtable" m.sc
EndChar

StartChar: n
Encoding: 110 110 42
Width: 681
GlyphClass: 2
Flags: W
AnchorPoint: "Anchor-14" 0 0 basechar 0
AnchorPoint: "Anchor-13" 0 0 basechar 0
AnchorPoint: "Anchor-12" 343 530 basechar 0
AnchorPoint: "Anchor-11" 0 0 basechar 0
AnchorPoint: "Anchor-10" 343 0 basechar 0
LayerCount: 2
Fore
SplineSet
534.5 476.5 m 128,-1,1
 594 418 594 418 594 305 c 2,2,-1
 594 0 l 1,3,-1
 498 0 l 1,4,-1
 498 294 l 2,5,6
 498 371 498 371 461 410 c 128,-1,7
 424 449 424 449 355 449 c 0,8,9
 277 449 277 449 232 403.5 c 128,-1,10
 187 358 187 358 187 273 c 2,11,-1
 187 0 l 1,12,-1
 91 0 l 1,13,-1
 91 530 l 1,14,-1
 183 530 l 1,15,-1
 183 450 l 1,16,17
 212 491 212 491 261.5 513 c 128,-1,18
 311 535 311 535 374 535 c 0,19,0
 475 535 475 535 534.5 476.5 c 128,-1,1
EndSplineSet
Substitution2: "'smcp' Lowercase to Small Capitals lookup 37 subtable" n.sc
Substitution2: "'aalt' Access All Alternates lookup 0 subtable" n.sc
EndChar

StartChar: o
Encoding: 111 111 43
Width: 635
GlyphClass: 2
Flags: W
AnchorPoint: "Anchor-14" 454 530 basechar 0
AnchorPoint: "Anchor-13" 317 265 basechar 0
AnchorPoint: "Anchor-12" 317 530 basechar 0
AnchorPoint: "Anchor-11" 416 0 basechar 0
AnchorPoint: "Anchor-10" 317 0 basechar 0
LayerCount: 2
Fore
SplineSet
176 29 m 128,-1,1
 113 64 113 64 77.5 125.5 c 128,-1,2
 42 187 42 187 42 265 c 256,3,4
 42 343 42 343 77.5 404.5 c 128,-1,5
 113 466 113 466 176 500.5 c 128,-1,6
 239 535 239 535 318 535 c 256,7,8
 397 535 397 535 459.5 500.5 c 128,-1,9
 522 466 522 466 557.5 404.5 c 128,-1,10
 593 343 593 343 593 265 c 256,11,12
 593 187 593 187 557.5 125.5 c 128,-1,13
 522 64 522 64 459.5 29 c 128,-1,14
 397 -6 397 -6 318 -6 c 256,15,0
 239 -6 239 -6 176 29 c 128,-1,1
409.5 101.5 m 128,-1,17
 450 125 450 125 473 167.5 c 128,-1,18
 496 210 496 210 496 265 c 256,19,20
 496 320 496 320 473 362.5 c 128,-1,21
 450 405 450 405 409.5 428 c 128,-1,22
 369 451 369 451 318 451 c 256,23,24
 267 451 267 451 226.5 428 c 128,-1,25
 186 405 186 405 162.5 362.5 c 128,-1,26
 139 320 139 320 139 265 c 256,27,28
 139 210 139 210 162.5 167.5 c 128,-1,29
 186 125 186 125 226.5 101.5 c 128,-1,30
 267 78 267 78 318 78 c 256,31,16
 369 78 369 78 409.5 101.5 c 128,-1,17
EndSplineSet
Substitution2: "Single Substitution lookup 44 subtable" ordmasculine
Substitution2: "'smcp' Lowercase to Small Capitals lookup 37 subtable" o.sc
AlternateSubs2: "'aalt' Access All Alternates lookup 1 subtable" ordmasculine o.sc
EndChar

StartChar: p
Encoding: 112 112 44
Width: 682
GlyphClass: 2
Flags: W
AnchorPoint: "Anchor-14" 0 0 basechar 0
AnchorPoint: "Anchor-13" 0 0 basechar 0
AnchorPoint: "Anchor-12" 364 530 basechar 0
AnchorPoint: "Anchor-11" 0 0 basechar 0
AnchorPoint: "Anchor-10" 384 0 basechar 0
LayerCount: 2
Fore
SplineSet
510 501 m 128,-1,1
 571 467 571 467 605.5 406 c 128,-1,2
 640 345 640 345 640 265 c 256,3,4
 640 185 640 185 605.5 123.5 c 128,-1,5
 571 62 571 62 510 28 c 128,-1,6
 449 -6 449 -6 372 -6 c 0,7,8
 315 -6 315 -6 267.5 16 c 128,-1,9
 220 38 220 38 187 80 c 1,10,-1
 187 -194 l 1,11,-1
 91 -194 l 1,12,-1
 91 530 l 1,13,-1
 183 530 l 1,14,-1
 183 446 l 1,15,16
 215 490 215 490 264 512.5 c 128,-1,17
 313 535 313 535 372 535 c 0,18,0
 449 535 449 535 510 501 c 128,-1,1
455.5 101.5 m 128,-1,20
 496 125 496 125 519.5 167.5 c 128,-1,21
 543 210 543 210 543 265 c 256,22,23
 543 320 543 320 519.5 362.5 c 128,-1,24
 496 405 496 405 455.5 428 c 128,-1,25
 415 451 415 451 364 451 c 0,26,27
 314 451 314 451 273.5 427.5 c 128,-1,28
 233 404 233 404 209.5 362 c 128,-1,29
 186 320 186 320 186 265 c 256,30,31
 186 210 186 210 209 167.5 c 128,-1,32
 232 125 232 125 273 101.5 c 128,-1,33
 314 78 314 78 364 78 c 0,34,19
 415 78 415 78 455.5 101.5 c 128,-1,20
EndSplineSet
Substitution2: "'smcp' Lowercase to Small Capitals lookup 37 subtable" p.sc
Substitution2: "'aalt' Access All Alternates lookup 0 subtable" p.sc
EndChar

StartChar: q
Encoding: 113 113 45
Width: 682
GlyphClass: 2
Flags: W
AnchorPoint: "Anchor-14" 0 0 basechar 0
AnchorPoint: "Anchor-13" 0 0 basechar 0
AnchorPoint: "Anchor-12" 318 530 basechar 0
AnchorPoint: "Anchor-11" 0 0 basechar 0
AnchorPoint: "Anchor-10" 299 0 basechar 0
LayerCount: 2
Fore
SplineSet
591 530 m 1,0,-1
 591 -194 l 1,1,-1
 495 -194 l 1,2,-1
 495 80 l 1,3,4
 462 38 462 38 414.5 16 c 128,-1,5
 367 -6 367 -6 310 -6 c 0,6,7
 233 -6 233 -6 172 28 c 128,-1,8
 111 62 111 62 76.5 123.5 c 128,-1,9
 42 185 42 185 42 265 c 256,10,11
 42 345 42 345 76.5 406 c 128,-1,12
 111 467 111 467 172 501 c 128,-1,13
 233 535 233 535 310 535 c 0,14,15
 369 535 369 535 418 512.5 c 128,-1,16
 467 490 467 490 499 446 c 1,17,-1
 499 530 l 1,18,-1
 591 530 l 1,0,-1
409 101.5 m 128,-1,20
 450 125 450 125 473 167.5 c 128,-1,21
 496 210 496 210 496 265 c 256,22,23
 496 320 496 320 472.5 362 c 128,-1,24
 449 404 449 404 408.5 427.5 c 128,-1,25
 368 451 368 451 318 451 c 0,26,27
 267 451 267 451 226.5 428 c 128,-1,28
 186 405 186 405 162.5 362.5 c 128,-1,29
 139 320 139 320 139 265 c 256,30,31
 139 210 139 210 162.5 167.5 c 128,-1,32
 186 125 186 125 226.5 101.5 c 128,-1,33
 267 78 267 78 318 78 c 0,34,19
 368 78 368 78 409 101.5 c 128,-1,20
EndSplineSet
Substitution2: "'smcp' Lowercase to Small Capitals lookup 37 subtable" q.sc
Substitution2: "'aalt' Access All Alternates lookup 0 subtable" q.sc
EndChar

StartChar: r
Encoding: 114 114 46
Width: 410
GlyphClass: 2
Flags: W
AnchorPoint: "Anchor-14" 0 0 basechar 0
AnchorPoint: "Anchor-13" 0 0 basechar 0
AnchorPoint: "Anchor-12" 234 530 basechar 0
AnchorPoint: "Anchor-11" 0 0 basechar 0
AnchorPoint: "Anchor-10" 139 0 basechar 0
LayerCount: 2
Fore
SplineSet
257 511 m 128,-1,1
 306 535 306 535 376 535 c 1,2,-1
 376 442 l 1,3,4
 368 443 368 443 354 443 c 0,5,6
 276 443 276 443 231.5 396.5 c 128,-1,7
 187 350 187 350 187 264 c 2,8,-1
 187 0 l 1,9,-1
 91 0 l 1,10,-1
 91 530 l 1,11,-1
 183 530 l 1,12,-1
 183 441 l 1,13,0
 208 487 208 487 257 511 c 128,-1,1
EndSplineSet
Substitution2: "'smcp' Lowercase to Small Capitals lookup 37 subtable" r.sc
Substitution2: "'aalt' Access All Alternates lookup 0 subtable" r.sc
EndChar

StartChar: s
Encoding: 115 115 47
Width: 501
GlyphClass: 2
Flags: W
AnchorPoint: "Anchor-14" 0 0 basechar 0
AnchorPoint: "Anchor-13" 0 0 basechar 0
AnchorPoint: "Anchor-12" 248 530 basechar 0
AnchorPoint: "Anchor-11" 0 0 basechar 0
AnchorPoint: "Anchor-10" 248 0 basechar 0
LayerCount: 2
Fore
SplineSet
118 11.5 m 128,-1,1
 58 29 58 29 24 56 c 1,2,-1
 64 132 l 1,3,4
 99 107 99 107 149 92 c 128,-1,5
 199 77 199 77 250 77 c 0,6,7
 376 77 376 77 376 149 c 0,8,9
 376 173 376 173 359 187 c 128,-1,10
 342 201 342 201 316.5 207.5 c 128,-1,11
 291 214 291 214 244 222 c 0,12,13
 180 232 180 232 139.5 245 c 128,-1,14
 99 258 99 258 70 289 c 128,-1,15
 41 320 41 320 41 376 c 0,16,17
 41 448 41 448 101 491.5 c 128,-1,18
 161 535 161 535 262 535 c 0,19,20
 315 535 315 535 368 522 c 128,-1,21
 421 509 421 509 455 487 c 1,22,-1
 414 411 l 1,23,24
 349 453 349 453 261 453 c 0,25,26
 200 453 200 453 168 433 c 128,-1,27
 136 413 136 413 136 380 c 0,28,29
 136 354 136 354 154 339 c 128,-1,30
 172 324 172 324 198.5 317 c 128,-1,31
 225 310 225 310 273 301 c 0,32,33
 337 290 337 290 376.5 277.5 c 128,-1,34
 416 265 416 265 444 235 c 128,-1,35
 472 205 472 205 472 151 c 0,36,37
 472 79 472 79 410.5 36.5 c 128,-1,38
 349 -6 349 -6 243 -6 c 0,39,0
 178 -6 178 -6 118 11.5 c 128,-1,1
EndSplineSet
Substitution2: "'smcp' Lowercase to Small Capitals lookup 37 subtable" s.sc
Substitution2: "'aalt' Access All Alternates lookup 0 subtable" s.sc
EndChar

StartChar: t
Encoding: 116 116 48
Width: 414
GlyphClass: 2
Flags: W
AnchorPoint: "Anchor-14" 285 742 basechar 0
AnchorPoint: "Anchor-13" 185 288 basechar 0
AnchorPoint: "Anchor-12" 153 646 basechar 0
AnchorPoint: "Anchor-11" 0 0 basechar 0
AnchorPoint: "Anchor-10" 253 0 basechar 0
LayerCount: 2
Fore
SplineSet
389 31 m 1,0,1
 368 13 368 13 337 3.5 c 128,-1,2
 306 -6 306 -6 273 -6 c 0,3,4
 193 -6 193 -6 149 37 c 128,-1,5
 105 80 105 80 105 160 c 2,6,-1
 105 451 l 1,7,-1
 15 451 l 1,8,-1
 15 530 l 1,9,-1
 105 530 l 1,10,-1
 105 646 l 1,11,-1
 201 646 l 1,12,-1
 201 530 l 1,13,-1
 353 530 l 1,14,-1
 353 451 l 1,15,-1
 201 451 l 1,16,-1
 201 164 l 2,17,18
 201 121 201 121 222.5 98 c 128,-1,19
 244 75 244 75 284 75 c 0,20,21
 328 75 328 75 359 100 c 1,22,-1
 389 31 l 1,0,1
EndSplineSet
Substitution2: "'ss01' Style Set 1 lookup 42 subtable" t.ss01
Substitution2: "'salt' Stylistic Alternatives lookup 41 subtable" t.ss01
Substitution2: "'smcp' Lowercase to Small Capitals lookup 37 subtable" t.sc
AlternateSubs2: "'aalt' Access All Alternates lookup 1 subtable" t.sc t.ss01
EndChar

StartChar: u
Encoding: 117 117 49
Width: 677
GlyphClass: 2
Flags: W
AnchorPoint: "Anchor-14" 538 530 basechar 0
AnchorPoint: "Anchor-13" 0 0 basechar 0
AnchorPoint: "Anchor-12" 336 530 basechar 0
AnchorPoint: "Anchor-11" 585 0 basechar 0
AnchorPoint: "Anchor-10" 336 0 basechar 0
LayerCount: 2
Fore
SplineSet
585 530 m 1,0,-1
 585 0 l 1,1,-1
 494 0 l 1,2,-1
 494 80 l 1,3,4
 465 39 465 39 417.5 16.5 c 128,-1,5
 370 -6 370 -6 314 -6 c 0,6,7
 208 -6 208 -6 147 52.5 c 128,-1,8
 86 111 86 111 86 225 c 2,9,-1
 86 530 l 1,10,-1
 182 530 l 1,11,-1
 182 236 l 2,12,13
 182 159 182 159 219 119.5 c 128,-1,14
 256 80 256 80 325 80 c 0,15,16
 401 80 401 80 445 126 c 128,-1,17
 489 172 489 172 489 256 c 2,18,-1
 489 530 l 1,19,-1
 585 530 l 1,0,-1
EndSplineSet
Substitution2: "'smcp' Lowercase to Small Capitals lookup 37 subtable" u.sc
Substitution2: "'aalt' Access All Alternates lookup 0 subtable" u.sc
EndChar

StartChar: v
Encoding: 118 118 50
Width: 559
GlyphClass: 2
Flags: W
AnchorPoint: "Anchor-14" 0 0 basechar 0
AnchorPoint: "Anchor-13" 0 0 basechar 0
AnchorPoint: "Anchor-12" 279 530 basechar 0
AnchorPoint: "Anchor-11" 0 0 basechar 0
AnchorPoint: "Anchor-10" 279 0 basechar 0
LayerCount: 2
Fore
SplineSet
560 530 m 1,0,-1
 328 0 l 1,1,-1
 230 0 l 1,2,-1
 -2 530 l 1,3,-1
 98 530 l 1,4,-1
 280 105 l 1,5,-1
 466 530 l 1,6,-1
 560 530 l 1,0,-1
EndSplineSet
Substitution2: "'smcp' Lowercase to Small Capitals lookup 37 subtable" v.sc
Substitution2: "'aalt' Access All Alternates lookup 0 subtable" v.sc
EndChar

StartChar: w
Encoding: 119 119 51
Width: 899
GlyphClass: 2
Flags: W
AnchorPoint: "Anchor-14" 0 0 basechar 0
AnchorPoint: "Anchor-13" 0 0 basechar 0
AnchorPoint: "Anchor-12" 447 528 basechar 0
AnchorPoint: "Anchor-11" 0 0 basechar 0
AnchorPoint: "Anchor-10" 447 0 basechar 0
LayerCount: 2
Fore
SplineSet
893 530 m 1,0,-1
 695 0 l 1,1,-1
 603 0 l 1,2,-1
 450 402 l 1,3,-1
 295 0 l 1,4,-1
 203 0 l 1,5,-1
 6 530 l 1,6,-1
 97 530 l 1,7,-1
 251 108 l 1,8,-1
 411 530 l 1,9,-1
 492 530 l 1,10,-1
 649 106 l 1,11,-1
 807 530 l 1,12,-1
 893 530 l 1,0,-1
EndSplineSet
Substitution2: "'ss01' Style Set 1 lookup 42 subtable" w.ss01
Substitution2: "'salt' Stylistic Alternatives lookup 41 subtable" w.ss01
Substitution2: "'smcp' Lowercase to Small Capitals lookup 37 subtable" w.sc
AlternateSubs2: "'aalt' Access All Alternates lookup 1 subtable" w.sc w.ss01
EndChar

StartChar: x
Encoding: 120 120 52
Width: 552
Flags: W
LayerCount: 2
Fore
SplineSet
429 0 m 1,0,-1
 276 203 l 1,1,-1
 121 0 l 1,2,-1
 14 0 l 1,3,-1
 223 271 l 1,4,-1
 24 530 l 1,5,-1
 131 530 l 1,6,-1
 277 339 l 1,7,-1
 422 530 l 1,8,-1
 527 530 l 1,9,-1
 327 271 l 1,10,-1
 538 0 l 1,11,-1
 429 0 l 1,0,-1
EndSplineSet
Substitution2: "'smcp' Lowercase to Small Capitals lookup 37 subtable" x.sc
Substitution2: "'aalt' Access All Alternates lookup 0 subtable" x.sc
EndChar

StartChar: y
Encoding: 121 121 53
Width: 559
GlyphClass: 2
Flags: W
AnchorPoint: "Anchor-14" 0 0 basechar 0
AnchorPoint: "Anchor-13" 0 0 basechar 0
AnchorPoint: "Anchor-12" 266 530 basechar 0
AnchorPoint: "Anchor-11" 0 0 basechar 0
AnchorPoint: "Anchor-10" 410 0 basechar 0
LayerCount: 2
Fore
SplineSet
560 530 m 1,0,-1
 303 -53 l 2,1,2
 269 -134 269 -134 223.5 -167 c 128,-1,3
 178 -200 178 -200 114 -200 c 0,4,5
 75 -200 75 -200 38.5 -187.5 c 128,-1,6
 2 -175 2 -175 -22 -151 c 1,7,-1
 19 -79 l 1,8,9
 60 -118 60 -118 114 -118 c 0,10,11
 149 -118 149 -118 172.5 -99.5 c 128,-1,12
 196 -81 196 -81 215 -36 c 2,13,-1
 232 1 l 1,14,-1
 -2 530 l 1,15,-1
 98 530 l 1,16,-1
 283 106 l 1,17,-1
 466 530 l 1,18,-1
 560 530 l 1,0,-1
EndSplineSet
Substitution2: "'ss01' Style Set 1 lookup 42 subtable" y.ss01
Substitution2: "'salt' Stylistic Alternatives lookup 41 subtable" y.ss01
Substitution2: "'smcp' Lowercase to Small Capitals lookup 37 subtable" y.sc
AlternateSubs2: "'aalt' Access All Alternates lookup 1 subtable" y.sc y.ss01
EndChar

StartChar: z
Encoding: 122 122 54
Width: 521
GlyphClass: 2
Flags: W
AnchorPoint: "Anchor-14" 0 0 basechar 0
AnchorPoint: "Anchor-13" 0 0 basechar 0
AnchorPoint: "Anchor-12" 262 530 basechar 0
AnchorPoint: "Anchor-11" 0 0 basechar 0
AnchorPoint: "Anchor-10" 268 0 basechar 0
LayerCount: 2
Fore
SplineSet
484 79 m 1,0,-1
 484 0 l 1,1,-1
 40 0 l 1,2,-1
 40 62 l 1,3,-1
 353 451 l 1,4,-1
 46 451 l 1,5,-1
 46 530 l 1,6,-1
 476 530 l 1,7,-1
 476 467 l 1,8,-1
 163 79 l 1,9,-1
 484 79 l 1,0,-1
EndSplineSet
Substitution2: "'ss01' Style Set 1 lookup 42 subtable" z.ss01
Substitution2: "'salt' Stylistic Alternatives lookup 41 subtable" z.ss01
Substitution2: "'smcp' Lowercase to Small Capitals lookup 37 subtable" z.sc
AlternateSubs2: "'aalt' Access All Alternates lookup 1 subtable" z.sc z.ss01
EndChar

StartChar: zero
Encoding: 48 48 55
Width: 667
Flags: W
LayerCount: 2
Fore
SplineSet
186.5 34.5 m 128,-1,1
 122 77 122 77 85 158 c 128,-1,2
 48 239 48 239 48 350 c 256,3,4
 48 461 48 461 85 542 c 128,-1,5
 122 623 122 623 186.5 665.5 c 128,-1,6
 251 708 251 708 334 708 c 0,7,8
 416 708 416 708 480.5 665.5 c 128,-1,9
 545 623 545 623 582 542 c 128,-1,10
 619 461 619 461 619 350 c 256,11,12
 619 239 619 239 582 158 c 128,-1,13
 545 77 545 77 480.5 34.5 c 128,-1,14
 416 -8 416 -8 334 -8 c 0,15,0
 251 -8 251 -8 186.5 34.5 c 128,-1,1
468.5 150 m 128,-1,17
 519 219 519 219 519 350 c 256,18,19
 519 481 519 481 468.5 550 c 128,-1,20
 418 619 418 619 334 619 c 0,21,22
 249 619 249 619 198.5 550 c 128,-1,23
 148 481 148 481 148 350 c 256,24,25
 148 219 148 219 198.5 150 c 128,-1,26
 249 81 249 81 334 81 c 0,27,16
 418 81 418 81 468.5 150 c 128,-1,17
EndSplineSet
Substitution2: "'onum' Oldstyle Figures lookup 35 subtable" zero.osf
Substitution2: "'tnum' Tabular Numbers lookup 34 subtable" zero.tf
Substitution2: "'frac' Diagonal Fractions lookup 28 subtable" zero.numr
Substitution2: "'dnom' Denominators lookup 26 subtable" zero.dnom
Substitution2: "'numr' Numerators lookup 25 subtable" zero.numr
Substitution2: "'sups' Superscript lookup 24 subtable" uni2070
Substitution2: "'sinf' Scientific Inferiors lookup 23 subtable" zero.sinf
Substitution2: "'subs' Subscript lookup 22 subtable" uni2080
AlternateSubs2: "'aalt' Access All Alternates lookup 1 subtable" uni2080 zero.sinf uni2070 zero.numr zero.dnom zero.tf zero.osf
EndChar

StartChar: one
Encoding: 49 49 56
Width: 370
Flags: W
LayerCount: 2
Fore
SplineSet
265 700 m 1,0,-1
 265 0 l 1,1,-1
 166 0 l 1,2,-1
 166 613 l 1,3,-1
 8 613 l 1,4,-1
 8 700 l 1,5,-1
 265 700 l 1,0,-1
EndSplineSet
Substitution2: "'onum' Oldstyle Figures lookup 35 subtable" one.osf
Substitution2: "'tnum' Tabular Numbers lookup 34 subtable" one.tf
Substitution2: "'frac' Diagonal Fractions lookup 28 subtable" one.numr
Substitution2: "'dnom' Denominators lookup 26 subtable" one.dnom
Substitution2: "'numr' Numerators lookup 25 subtable" one.numr
Substitution2: "'sups' Superscript lookup 24 subtable" uni00B9
Substitution2: "'sinf' Scientific Inferiors lookup 23 subtable" one.sinf
Substitution2: "'subs' Subscript lookup 22 subtable" uni2081
AlternateSubs2: "'aalt' Access All Alternates lookup 1 subtable" uni2081 one.sinf uni00B9 one.numr one.dnom one.tf one.osf
EndChar

StartChar: two
Encoding: 50 50 57
Width: 574
Flags: W
LayerCount: 2
Fore
SplineSet
540 87 m 1,0,-1
 540 0 l 1,1,-1
 37 0 l 1,2,-1
 37 68 l 1,3,-1
 322 343 l 2,4,5
 374 393 374 393 392 429.5 c 128,-1,6
 410 466 410 466 410 503 c 0,7,8
 410 558 410 558 371.5 588.5 c 128,-1,9
 333 619 333 619 261 619 c 0,10,11
 145 619 145 619 82 543 c 1,12,-1
 14 602 l 1,13,14
 55 652 55 652 121.5 680 c 128,-1,15
 188 708 188 708 270 708 c 0,16,17
 380 708 380 708 445 655.5 c 128,-1,18
 510 603 510 603 510 513 c 0,19,20
 510 457 510 457 486 407 c 128,-1,21
 462 357 462 357 395 293 c 2,22,-1
 181 87 l 1,23,-1
 540 87 l 1,0,-1
EndSplineSet
Substitution2: "'onum' Oldstyle Figures lookup 35 subtable" two.osf
Substitution2: "'tnum' Tabular Numbers lookup 34 subtable" two.tf
Substitution2: "'frac' Diagonal Fractions lookup 28 subtable" two.numr
Substitution2: "'dnom' Denominators lookup 26 subtable" two.dnom
Substitution2: "'numr' Numerators lookup 25 subtable" two.numr
Substitution2: "'sups' Superscript lookup 24 subtable" uni00B2
Substitution2: "'sinf' Scientific Inferiors lookup 23 subtable" two.sinf
Substitution2: "'subs' Subscript lookup 22 subtable" uni2082
AlternateSubs2: "'aalt' Access All Alternates lookup 1 subtable" uni2082 two.sinf uni00B2 two.numr two.dnom two.tf two.osf
EndChar

StartChar: three
Encoding: 51 51 58
Width: 572
Flags: W
LayerCount: 2
Fore
SplineSet
473 342.5 m 128,-1,1
 527 289 527 289 527 206 c 0,2,3
 527 146 527 146 497 97.5 c 128,-1,4
 467 49 467 49 407.5 20.5 c 128,-1,5
 348 -8 348 -8 262 -8 c 0,6,7
 187 -8 187 -8 118 14.5 c 128,-1,8
 49 37 49 37 5 77 c 1,9,-1
 51 156 l 1,10,11
 87 122 87 122 143 101.5 c 128,-1,12
 199 81 199 81 262 81 c 0,13,14
 340 81 340 81 383.5 114 c 128,-1,15
 427 147 427 147 427 205 c 256,16,17
 427 263 427 263 384 295 c 128,-1,18
 341 327 341 327 254 327 c 2,19,-1
 198 327 l 1,20,-1
 198 397 l 1,21,-1
 374 613 l 1,22,-1
 37 613 l 1,23,-1
 37 700 l 1,24,-1
 499 700 l 1,25,-1
 499 632 l 1,26,-1
 316 406 l 1,27,0
 419 396 419 396 473 342.5 c 128,-1,1
EndSplineSet
Substitution2: "'onum' Oldstyle Figures lookup 35 subtable" three.osf
Substitution2: "'tnum' Tabular Numbers lookup 34 subtable" three.tf
Substitution2: "'frac' Diagonal Fractions lookup 28 subtable" three.numr
Substitution2: "'dnom' Denominators lookup 26 subtable" three.dnom
Substitution2: "'numr' Numerators lookup 25 subtable" three.numr
Substitution2: "'sups' Superscript lookup 24 subtable" uni00B3
Substitution2: "'sinf' Scientific Inferiors lookup 23 subtable" three.sinf
Substitution2: "'subs' Subscript lookup 22 subtable" uni2083
AlternateSubs2: "'aalt' Access All Alternates lookup 1 subtable" uni2083 three.sinf uni00B3 three.numr three.dnom three.tf three.osf
EndChar

StartChar: four
Encoding: 52 52 59
Width: 669
Flags: W
LayerCount: 2
Fore
SplineSet
657 172 m 1,0,-1
 524 172 l 1,1,-1
 524 0 l 1,2,-1
 427 0 l 1,3,-1
 427 172 l 1,4,-1
 38 172 l 1,5,-1
 38 242 l 1,6,-1
 396 700 l 1,7,-1
 504 700 l 1,8,-1
 161 258 l 1,9,-1
 430 258 l 1,10,-1
 430 410 l 1,11,-1
 524 410 l 1,12,-1
 524 258 l 1,13,-1
 657 258 l 1,14,-1
 657 172 l 1,0,-1
EndSplineSet
Substitution2: "'onum' Oldstyle Figures lookup 35 subtable" four.osf
Substitution2: "'tnum' Tabular Numbers lookup 34 subtable" four.tf
Substitution2: "'frac' Diagonal Fractions lookup 28 subtable" four.numr
Substitution2: "'dnom' Denominators lookup 26 subtable" four.dnom
Substitution2: "'numr' Numerators lookup 25 subtable" four.numr
Substitution2: "'sups' Superscript lookup 24 subtable" uni2074
Substitution2: "'sinf' Scientific Inferiors lookup 23 subtable" four.sinf
Substitution2: "'subs' Subscript lookup 22 subtable" uni2084
AlternateSubs2: "'aalt' Access All Alternates lookup 1 subtable" uni2084 four.sinf uni2074 four.numr four.dnom four.tf four.osf
EndChar

StartChar: five
Encoding: 53 53 60
Width: 574
Flags: W
LayerCount: 2
Fore
SplineSet
468.5 364.5 m 128,-1,1
 539 308 539 308 539 210 c 0,2,3
 539 148 539 148 509.5 98.5 c 128,-1,4
 480 49 480 49 420.5 20.5 c 128,-1,5
 361 -8 361 -8 274 -8 c 0,6,7
 200 -8 200 -8 131 14.5 c 128,-1,8
 62 37 62 37 17 77 c 1,9,-1
 63 156 l 1,10,11
 99 122 99 122 155 101.5 c 128,-1,12
 211 81 211 81 273 81 c 0,13,14
 352 81 352 81 395.5 114.5 c 128,-1,15
 439 148 439 148 439 206 c 0,16,17
 439 269 439 269 391 301.5 c 128,-1,18
 343 334 343 334 227 334 c 2,19,-1
 68 334 l 1,20,-1
 105 700 l 1,21,-1
 500 700 l 1,22,-1
 500 613 l 1,23,-1
 189 613 l 1,24,-1
 170 421 l 1,25,-1
 248 421 l 2,26,0
 398 421 398 421 468.5 364.5 c 128,-1,1
EndSplineSet
Substitution2: "'onum' Oldstyle Figures lookup 35 subtable" five.osf
Substitution2: "'tnum' Tabular Numbers lookup 34 subtable" five.tf
Substitution2: "'frac' Diagonal Fractions lookup 28 subtable" five.numr
Substitution2: "'dnom' Denominators lookup 26 subtable" five.dnom
Substitution2: "'numr' Numerators lookup 25 subtable" five.numr
Substitution2: "'sups' Superscript lookup 24 subtable" uni2075
Substitution2: "'sinf' Scientific Inferiors lookup 23 subtable" five.sinf
Substitution2: "'subs' Subscript lookup 22 subtable" uni2085
AlternateSubs2: "'aalt' Access All Alternates lookup 1 subtable" uni2085 five.sinf uni2075 five.numr five.dnom five.tf five.osf
EndChar

StartChar: six
Encoding: 54 54 61
Width: 617
Flags: W
LayerCount: 2
Fore
SplineSet
473.5 399 m 128,-1,1
 528 373 528 373 559 324.5 c 128,-1,2
 590 276 590 276 590 213 c 0,3,4
 590 147 590 147 557.5 97 c 128,-1,5
 525 47 525 47 468.5 19.5 c 128,-1,6
 412 -8 412 -8 342 -8 c 0,7,8
 201 -8 201 -8 124.5 83 c 128,-1,9
 48 174 48 174 48 341 c 0,10,11
 48 458 48 458 89.5 540.5 c 128,-1,12
 131 623 131 623 205.5 665.5 c 128,-1,13
 280 708 280 708 379 708 c 0,14,15
 430 708 430 708 475 697.5 c 128,-1,16
 520 687 520 687 553 667 c 1,17,-1
 515 589 l 1,18,19
 465 622 465 622 381 622 c 0,20,21
 272 622 272 622 210 554.5 c 128,-1,22
 148 487 148 487 148 358 c 0,23,24
 148 342 148 342 149 333 c 1,25,26
 179 378 179 378 231.5 401.5 c 128,-1,27
 284 425 284 425 350 425 c 0,28,0
 419 425 419 425 473.5 399 c 128,-1,1
450 110 m 128,-1,30
 493 147 493 147 493 209 c 256,31,32
 493 271 493 271 449.5 307.5 c 128,-1,33
 406 344 406 344 333 344 c 0,34,35
 286 344 286 344 249.5 326 c 128,-1,36
 213 308 213 308 192.5 277 c 128,-1,37
 172 246 172 246 172 208 c 0,38,39
 172 171 172 171 191.5 140.5 c 128,-1,40
 211 110 211 110 248.5 91.5 c 128,-1,41
 286 73 286 73 338 73 c 0,42,29
 407 73 407 73 450 110 c 128,-1,30
EndSplineSet
Substitution2: "'onum' Oldstyle Figures lookup 35 subtable" six.osf
Substitution2: "'tnum' Tabular Numbers lookup 34 subtable" six.tf
Substitution2: "'frac' Diagonal Fractions lookup 28 subtable" six.numr
Substitution2: "'dnom' Denominators lookup 26 subtable" six.dnom
Substitution2: "'numr' Numerators lookup 25 subtable" six.numr
Substitution2: "'sups' Superscript lookup 24 subtable" uni2076
Substitution2: "'sinf' Scientific Inferiors lookup 23 subtable" six.sinf
Substitution2: "'subs' Subscript lookup 22 subtable" uni2086
AlternateSubs2: "'aalt' Access All Alternates lookup 1 subtable" uni2086 six.sinf uni2076 six.numr six.dnom six.tf six.osf
EndChar

StartChar: seven
Encoding: 55 55 62
Width: 598
Flags: W
LayerCount: 2
Fore
SplineSet
558 700 m 1,0,-1
 558 632 l 1,1,-1
 275 0 l 1,2,-1
 169 0 l 1,3,-1
 446 613 l 1,4,-1
 126 613 l 1,5,-1
 126 488 l 1,6,-1
 30 488 l 1,7,-1
 30 700 l 1,8,-1
 558 700 l 1,0,-1
EndSplineSet
Substitution2: "'onum' Oldstyle Figures lookup 35 subtable" seven.osf
Substitution2: "'tnum' Tabular Numbers lookup 34 subtable" seven.tf
Substitution2: "'frac' Diagonal Fractions lookup 28 subtable" seven.numr
Substitution2: "'dnom' Denominators lookup 26 subtable" seven.dnom
Substitution2: "'numr' Numerators lookup 25 subtable" seven.numr
Substitution2: "'sups' Superscript lookup 24 subtable" uni2077
Substitution2: "'sinf' Scientific Inferiors lookup 23 subtable" seven.sinf
Substitution2: "'subs' Subscript lookup 22 subtable" uni2087
AlternateSubs2: "'aalt' Access All Alternates lookup 1 subtable" uni2087 seven.sinf uni2077 seven.numr seven.dnom seven.tf seven.osf
EndChar

StartChar: eight
Encoding: 56 56 63
Width: 644
Flags: W
LayerCount: 2
Fore
SplineSet
568 301 m 128,-1,1
 600 258 600 258 600 198 c 0,2,3
 600 135 600 135 566 88.5 c 128,-1,4
 532 42 532 42 469 17 c 128,-1,5
 406 -8 406 -8 321 -8 c 0,6,7
 237 -8 237 -8 174.5 17 c 128,-1,8
 112 42 112 42 78 88.5 c 128,-1,9
 44 135 44 135 44 198 c 0,10,11
 44 258 44 258 75.5 301 c 128,-1,12
 107 344 107 344 167 367 c 1,13,14
 119 390 119 390 94 428 c 128,-1,15
 69 466 69 466 69 518 c 0,16,17
 69 576 69 576 100.5 619 c 128,-1,18
 132 662 132 662 189 685 c 128,-1,19
 246 708 246 708 321 708 c 0,20,21
 397 708 397 708 454.5 685 c 128,-1,22
 512 662 512 662 543.5 619 c 128,-1,23
 575 576 575 576 575 518 c 0,24,25
 575 467 575 467 549.5 428.5 c 128,-1,26
 524 390 524 390 476 367 c 1,27,0
 536 344 536 344 568 301 c 128,-1,1
209 596.5 m 128,-1,29
 168 566 168 566 168 514 c 256,30,31
 168 462 168 462 208.5 432 c 128,-1,32
 249 402 249 402 321 402 c 0,33,34
 394 402 394 402 435.5 432 c 128,-1,35
 477 462 477 462 477 514 c 256,36,37
 477 566 477 566 434.5 596.5 c 128,-1,38
 392 627 392 627 321 627 c 256,39,28
 250 627 250 627 209 596.5 c 128,-1,29
452 107.5 m 128,-1,41
 500 142 500 142 500 201 c 0,42,43
 500 259 500 259 452 292.5 c 128,-1,44
 404 326 404 326 321 326 c 256,45,46
 238 326 238 326 191 292.5 c 128,-1,47
 144 259 144 259 144 201 c 0,48,49
 144 142 144 142 191 107.5 c 128,-1,50
 238 73 238 73 321 73 c 256,51,40
 404 73 404 73 452 107.5 c 128,-1,41
EndSplineSet
Substitution2: "'onum' Oldstyle Figures lookup 35 subtable" eight.osf
Substitution2: "'tnum' Tabular Numbers lookup 34 subtable" eight.tf
Substitution2: "'frac' Diagonal Fractions lookup 28 subtable" eight.numr
Substitution2: "'dnom' Denominators lookup 26 subtable" eight.dnom
Substitution2: "'numr' Numerators lookup 25 subtable" eight.numr
Substitution2: "'sups' Superscript lookup 24 subtable" uni2078
Substitution2: "'sinf' Scientific Inferiors lookup 23 subtable" eight.sinf
Substitution2: "'subs' Subscript lookup 22 subtable" uni2088
AlternateSubs2: "'aalt' Access All Alternates lookup 1 subtable" uni2088 eight.sinf uni2078 eight.numr eight.dnom eight.tf eight.osf
EndChar

StartChar: nine
Encoding: 57 57 64
Width: 617
Flags: W
LayerCount: 2
Fore
SplineSet
492.5 617 m 128,-1,1
 569 526 569 526 569 359 c 0,2,3
 569 242 569 242 527.5 159.5 c 128,-1,4
 486 77 486 77 411.5 34.5 c 128,-1,5
 337 -8 337 -8 238 -8 c 0,6,7
 187 -8 187 -8 142 2.5 c 128,-1,8
 97 13 97 13 64 33 c 1,9,-1
 102 111 l 1,10,11
 153 78 153 78 237 78 c 0,12,13
 346 78 346 78 407.5 145.5 c 128,-1,14
 469 213 469 213 469 342 c 2,15,-1
 469 367 l 1,16,17
 439 322 439 322 386 298.5 c 128,-1,18
 333 275 333 275 267 275 c 0,19,20
 198 275 198 275 143.5 301 c 128,-1,21
 89 327 89 327 58.5 375.5 c 128,-1,22
 28 424 28 424 28 487 c 0,23,24
 28 553 28 553 60.5 603 c 128,-1,25
 93 653 93 653 149 680.5 c 128,-1,26
 205 708 205 708 275 708 c 0,27,0
 416 708 416 708 492.5 617 c 128,-1,1
368 374 m 128,-1,29
 405 392 405 392 425.5 423 c 128,-1,30
 446 454 446 454 446 492 c 0,31,32
 446 529 446 529 426.5 559.5 c 128,-1,33
 407 590 407 590 369.5 608.5 c 128,-1,34
 332 627 332 627 279 627 c 0,35,36
 210 627 210 627 167.5 590 c 128,-1,37
 125 553 125 553 125 491 c 256,38,39
 125 429 125 429 168 392.5 c 128,-1,40
 211 356 211 356 284 356 c 0,41,28
 331 356 331 356 368 374 c 128,-1,29
EndSplineSet
Substitution2: "'onum' Oldstyle Figures lookup 35 subtable" nine.osf
Substitution2: "'tnum' Tabular Numbers lookup 34 subtable" nine.tf
Substitution2: "'frac' Diagonal Fractions lookup 28 subtable" nine.numr
Substitution2: "'dnom' Denominators lookup 26 subtable" nine.dnom
Substitution2: "'numr' Numerators lookup 25 subtable" nine.numr
Substitution2: "'sups' Superscript lookup 24 subtable" uni2079
Substitution2: "'sinf' Scientific Inferiors lookup 23 subtable" nine.sinf
Substitution2: "'subs' Subscript lookup 22 subtable" uni2089
AlternateSubs2: "'aalt' Access All Alternates lookup 1 subtable" uni2089 nine.sinf uni2079 nine.numr nine.dnom nine.tf nine.osf
EndChar

StartChar: asterisk
Encoding: 42 42 65
Width: 400
Flags: W
LayerCount: 2
Fore
SplineSet
262 556 m 1,0,-1
 381 489 l 1,1,-1
 350 434 l 1,2,-1
 229 505 l 1,3,-1
 230 369 l 1,4,-1
 170 369 l 1,5,-1
 171 505 l 1,6,-1
 50 434 l 1,7,-1
 19 489 l 1,8,-1
 139 556 l 1,9,-1
 19 622 l 1,10,-1
 50 678 l 1,11,-1
 171 607 l 1,12,-1
 170 742 l 1,13,-1
 230 742 l 1,14,-1
 229 607 l 1,15,-1
 350 678 l 1,16,-1
 381 622 l 1,17,-1
 262 556 l 1,0,-1
EndSplineSet
EndChar

StartChar: backslash
Encoding: 92 92 66
Width: 352
Flags: W
LayerCount: 2
Fore
SplineSet
292 -100 m 1,0,-1
 -38 842 l 1,1,-1
 49 842 l 1,2,-1
 379 -100 l 1,3,-1
 292 -100 l 1,0,-1
EndSplineSet
Substitution2: "'case' Case-Sensitive Forms lookup 38 subtable" backslash.case
Substitution2: "'aalt' Access All Alternates lookup 0 subtable" backslash.case
EndChar

StartChar: comma
Encoding: 44 44 68
Width: 227
Flags: W
LayerCount: 2
Fore
SplineSet
161.5 111.5 m 128,-1,1
 180 92 180 92 180 63 c 0,2,3
 180 48 180 48 176.5 34 c 128,-1,4
 173 20 173 20 163 -9 c 2,5,-1
 116 -148 l 1,6,-1
 53 -148 l 1,7,-1
 90 1 l 1,8,9
 71 8 71 8 59.5 24.5 c 128,-1,10
 48 41 48 41 48 63 c 0,11,12
 48 93 48 93 67 112 c 128,-1,13
 86 131 86 131 115 131 c 0,14,0
 143 131 143 131 161.5 111.5 c 128,-1,1
EndSplineSet
EndChar

StartChar: exclam
Encoding: 33 33 69
Width: 268
Flags: W
LayerCount: 2
Fore
SplineSet
78 700 m 1,0,-1
 191 700 l 1,1,-1
 172 221 l 1,2,-1
 96 221 l 1,3,-1
 78 700 l 1,0,-1
88 12.5 m 128,-1,5
 69 31 69 31 69 58 c 256,6,7
 69 85 69 85 88 103.5 c 128,-1,8
 107 122 107 122 135 122 c 256,9,10
 163 122 163 122 181 103.5 c 128,-1,11
 199 85 199 85 199 58 c 256,12,13
 199 31 199 31 180.5 12.5 c 128,-1,14
 162 -6 162 -6 135 -6 c 0,15,4
 107 -6 107 -6 88 12.5 c 128,-1,5
EndSplineSet
Substitution2: "'smcp' Lowercase to Small Capitals lookup 37 subtable" exclam.sc
Substitution2: "'c2sc' Capitals to Small Capitals lookup 36 subtable" exclam.sc
Substitution2: "'aalt' Access All Alternates lookup 0 subtable" exclam.sc
EndChar

StartChar: numbersign
Encoding: 35 35 70
Width: 703
Flags: W
LayerCount: 2
Fore
SplineSet
529 447 m 1,0,-1
 505 253 l 1,1,-1
 644 253 l 1,2,-1
 644 180 l 1,3,-1
 496 180 l 1,4,-1
 474 0 l 1,5,-1
 403 0 l 1,6,-1
 425 180 l 1,7,-1
 236 180 l 1,8,-1
 214 0 l 1,9,-1
 143 0 l 1,10,-1
 165 180 l 1,11,-1
 27 180 l 1,12,-1
 27 253 l 1,13,-1
 174 253 l 1,14,-1
 199 447 l 1,15,-1
 59 447 l 1,16,-1
 59 520 l 1,17,-1
 208 520 l 1,18,-1
 230 700 l 1,19,-1
 301 700 l 1,20,-1
 279 520 l 1,21,-1
 467 520 l 1,22,-1
 489 700 l 1,23,-1
 560 700 l 1,24,-1
 538 520 l 1,25,-1
 676 520 l 1,26,-1
 676 447 l 1,27,-1
 529 447 l 1,0,-1
458 447 m 1,28,-1
 270 447 l 1,29,-1
 245 253 l 1,30,-1
 434 253 l 1,31,-1
 458 447 l 1,28,-1
EndSplineSet
EndChar

StartChar: period
Encoding: 46 46 71
Width: 227
Flags: W
LayerCount: 2
Fore
SplineSet
66 13.5 m 128,-1,1
 46 33 46 33 46 63 c 0,2,3
 46 92 46 92 66 111.5 c 128,-1,4
 86 131 86 131 114 131 c 256,5,6
 142 131 142 131 161 112 c 128,-1,7
 180 93 180 93 180 63 c 256,8,9
 180 33 180 33 160.5 13.5 c 128,-1,10
 141 -6 141 -6 114 -6 c 0,11,0
 86 -6 86 -6 66 13.5 c 128,-1,1
EndSplineSet
Substitution2: "'smcp' Lowercase to Small Capitals lookup 37 subtable" period.sc
Substitution2: "'c2sc' Capitals to Small Capitals lookup 36 subtable" period.sc
Substitution2: "'aalt' Access All Alternates lookup 0 subtable" period.sc
EndChar

StartChar: question
Encoding: 63 63 72
Width: 573
Flags: W
LayerCount: 2
Fore
SplineSet
241.5 291.5 m 128,-1,1
 255 322 255 322 274.5 343 c 128,-1,2
 294 364 294 364 326 393 c 0,3,4
 366 428 366 428 385 453.5 c 128,-1,5
 404 479 404 479 404 515 c 0,6,7
 404 564 404 564 366 593.5 c 128,-1,8
 328 623 328 623 261 623 c 0,9,10
 144 623 144 623 82 544 c 1,11,-1
 9 596 l 1,12,13
 51 650 51 650 116.5 679 c 128,-1,14
 182 708 182 708 268 708 c 0,15,16
 377 708 377 708 441 660.5 c 128,-1,17
 505 613 505 613 505 530 c 0,18,19
 505 489 505 489 491.5 457.5 c 128,-1,20
 478 426 478 426 459 405 c 128,-1,21
 440 384 440 384 408 355 c 0,22,23
 367 318 367 318 347.5 290 c 128,-1,24
 328 262 328 262 328 221 c 1,25,-1
 228 221 l 1,26,0
 228 261 228 261 241.5 291.5 c 128,-1,1
232.5 12.5 m 128,-1,28
 214 31 214 31 214 58 c 256,29,30
 214 85 214 85 232.5 103.5 c 128,-1,31
 251 122 251 122 279 122 c 256,32,33
 307 122 307 122 325 103.5 c 128,-1,34
 343 85 343 85 343 58 c 256,35,36
 343 31 343 31 324.5 12.5 c 128,-1,37
 306 -6 306 -6 279 -6 c 0,38,27
 251 -6 251 -6 232.5 12.5 c 128,-1,28
EndSplineSet
Substitution2: "'smcp' Lowercase to Small Capitals lookup 37 subtable" question.sc
Substitution2: "'c2sc' Capitals to Small Capitals lookup 36 subtable" question.sc
Substitution2: "'aalt' Access All Alternates lookup 0 subtable" question.sc
EndChar

StartChar: quotesingle
Encoding: 39 39 74
Width: 210
Flags: W
LayerCount: 2
Fore
SplineSet
63 700 m 1,0,-1
 147 700 l 1,1,-1
 140 430 l 1,2,-1
 69 430 l 1,3,-1
 63 700 l 1,0,-1
EndSplineSet
Substitution2: "'smcp' Lowercase to Small Capitals lookup 37 subtable" quotesingle.sc
Substitution2: "'c2sc' Capitals to Small Capitals lookup 36 subtable" quotesingle.sc
Substitution2: "'aalt' Access All Alternates lookup 0 subtable" quotesingle.sc
EndChar

StartChar: slash
Encoding: 47 47 76
Width: 352
Flags: W
LayerCount: 2
Fore
SplineSet
302 842 m 1,0,-1
 389 842 l 1,1,-1
 59 -100 l 1,2,-1
 -28 -100 l 1,3,-1
 302 842 l 1,0,-1
EndSplineSet
Substitution2: "'case' Case-Sensitive Forms lookup 38 subtable" slash.case
Substitution2: "'frac' Diagonal Fractions lookup 27 subtable" fraction
AlternateSubs2: "'aalt' Access All Alternates lookup 1 subtable" fraction slash.case
EndChar

StartChar: underscore
Encoding: 95 95 77
Width: 500
Flags: W
LayerCount: 2
Fore
SplineSet
0 0 m 1,0,-1
 500 0 l 1,1,-1
 500 -62 l 1,2,-1
 0 -62 l 1,3,-1
 0 0 l 1,0,-1
EndSplineSet
EndChar

StartChar: braceleft
Encoding: 123 123 78
Width: 351
Flags: W
LayerCount: 2
Fore
SplineSet
220 304 m 128,-1,1
 207 283 207 283 178 274 c 1,2,3
 207 265 207 265 220 244 c 128,-1,4
 233 223 233 223 233 182 c 2,5,-1
 233 -37 l 2,6,7
 233 -115 233 -115 307 -115 c 2,8,-1
 332 -115 l 1,9,-1
 332 -194 l 1,10,-1
 288 -194 l 2,11,12
 213 -194 213 -194 175 -156.5 c 128,-1,13
 137 -119 137 -119 137 -46 c 2,14,-1
 137 184 l 2,15,16
 137 234 137 234 92 234 c 2,17,-1
 57 234 l 1,18,-1
 57 314 l 1,19,-1
 92 314 l 2,20,21
 137 314 137 314 137 364 c 2,22,-1
 137 594 l 2,23,24
 137 667 137 667 175 704.5 c 128,-1,25
 213 742 213 742 288 742 c 2,26,-1
 332 742 l 1,27,-1
 332 663 l 1,28,-1
 307 663 l 2,29,30
 233 663 233 663 233 585 c 2,31,-1
 233 366 l 2,32,0
 233 325 233 325 220 304 c 128,-1,1
EndSplineSet
Substitution2: "'case' Case-Sensitive Forms lookup 38 subtable" braceleft.case
Substitution2: "'aalt' Access All Alternates lookup 0 subtable" braceleft.case
EndChar

StartChar: braceright
Encoding: 125 125 79
Width: 351
Flags: W
LayerCount: 2
Fore
SplineSet
293 314 m 1,0,-1
 293 234 l 1,1,-1
 259 234 l 2,2,3
 215 234 215 234 215 184 c 2,4,-1
 215 -46 l 2,5,6
 215 -119 215 -119 176.5 -156.5 c 128,-1,7
 138 -194 138 -194 63 -194 c 2,8,-1
 19 -194 l 1,9,-1
 19 -115 l 1,10,-1
 43 -115 l 2,11,12
 119 -115 119 -115 119 -37 c 2,13,-1
 119 182 l 2,14,15
 119 224 119 224 131.5 244.5 c 128,-1,16
 144 265 144 265 173 274 c 1,17,18
 144 283 144 283 131.5 303.5 c 128,-1,19
 119 324 119 324 119 366 c 2,20,-1
 119 585 l 2,21,22
 119 663 119 663 43 663 c 2,23,-1
 19 663 l 1,24,-1
 19 742 l 1,25,-1
 63 742 l 2,26,27
 138 742 138 742 176.5 704.5 c 128,-1,28
 215 667 215 667 215 594 c 2,29,-1
 215 364 l 2,30,31
 215 314 215 314 259 314 c 2,32,-1
 293 314 l 1,0,-1
EndSplineSet
Substitution2: "'case' Case-Sensitive Forms lookup 38 subtable" braceright.case
Substitution2: "'aalt' Access All Alternates lookup 0 subtable" braceright.case
EndChar

StartChar: bracketleft
Encoding: 91 91 80
Width: 333
Flags: W
LayerCount: 2
Fore
SplineSet
105 742 m 1,0,-1
 314 742 l 1,1,-1
 314 663 l 1,2,-1
 201 663 l 1,3,-1
 201 -115 l 1,4,-1
 314 -115 l 1,5,-1
 314 -194 l 1,6,-1
 105 -194 l 1,7,-1
 105 742 l 1,0,-1
EndSplineSet
Substitution2: "'case' Case-Sensitive Forms lookup 38 subtable" bracketleft.case
Substitution2: "'aalt' Access All Alternates lookup 0 subtable" bracketleft.case
EndChar

StartChar: bracketright
Encoding: 93 93 81
Width: 333
Flags: W
LayerCount: 2
Fore
SplineSet
19 -194 m 1,0,-1
 19 -115 l 1,1,-1
 132 -115 l 1,2,-1
 132 663 l 1,3,-1
 19 663 l 1,4,-1
 19 742 l 1,5,-1
 228 742 l 1,6,-1
 228 -194 l 1,7,-1
 19 -194 l 1,0,-1
EndSplineSet
Substitution2: "'case' Case-Sensitive Forms lookup 38 subtable" bracketright.case
Substitution2: "'aalt' Access All Alternates lookup 0 subtable" bracketright.case
EndChar

StartChar: parenleft
Encoding: 40 40 82
Width: 337
Flags: W
LayerCount: 2
Fore
SplineSet
126 17.5 m 128,-1,1
 95 137 95 137 95 274 c 256,2,3
 95 411 95 411 126 531.5 c 128,-1,4
 157 652 157 652 214 742 c 1,5,-1
 305 742 l 1,6,7
 245 637 245 637 217 522 c 128,-1,8
 189 407 189 407 189 274 c 256,9,10
 189 141 189 141 217 26 c 128,-1,11
 245 -89 245 -89 305 -194 c 1,12,-1
 214 -194 l 1,13,0
 157 -102 157 -102 126 17.5 c 128,-1,1
EndSplineSet
Substitution2: "'case' Case-Sensitive Forms lookup 38 subtable" parenleft.case
Substitution2: "'aalt' Access All Alternates lookup 0 subtable" parenleft.case
EndChar

StartChar: parenright
Encoding: 41 41 83
Width: 338
Flags: W
LayerCount: 2
Fore
SplineSet
32 -194 m 1,0,1
 92 -89 92 -89 120.5 26 c 128,-1,2
 149 141 149 141 149 274 c 256,3,4
 149 407 149 407 120.5 522 c 128,-1,5
 92 637 92 637 32 742 c 1,6,-1
 123 742 l 1,7,8
 181 652 181 652 212 532 c 128,-1,9
 243 412 243 412 243 274 c 0,10,11
 243 137 243 137 212 17 c 128,-1,12
 181 -103 181 -103 123 -194 c 1,13,-1
 32 -194 l 1,0,1
EndSplineSet
Substitution2: "'case' Case-Sensitive Forms lookup 38 subtable" parenright.case
Substitution2: "'aalt' Access All Alternates lookup 0 subtable" parenright.case
EndChar

StartChar: hyphen
Encoding: 45 45 84
Width: 383
Flags: W
LayerCount: 2
Fore
SplineSet
57 316 m 1,0,-1
 326 316 l 1,1,-1
 326 233 l 1,2,-1
 57 233 l 1,3,-1
 57 316 l 1,0,-1
EndSplineSet
Substitution2: "'case' Case-Sensitive Forms lookup 38 subtable" hyphen.case
Substitution2: "'aalt' Access All Alternates lookup 0 subtable" hyphen.case
EndChar

StartChar: dollar
Encoding: 36 36 85
Width: 621
Flags: W
LayerCount: 2
Fore
SplineSet
520.5 57 m 128,-1,1
 461 2 461 2 348 -7 c 1,2,-1
 348 -120 l 1,3,-1
 284 -120 l 1,4,-1
 284 -7 l 1,5,6
 211 -3 211 -3 145.5 20.5 c 128,-1,7
 80 44 80 44 41 80 c 1,8,-1
 78 158 l 1,9,10
 114 125 114 125 169 103.5 c 128,-1,11
 224 82 224 82 284 78 c 1,12,-1
 284 310 l 1,13,14
 214 327 214 327 167.5 347 c 128,-1,15
 121 367 121 367 89.5 406 c 128,-1,16
 58 445 58 445 58 508 c 0,17,18
 58 587 58 587 115.5 642 c 128,-1,19
 173 697 173 697 284 706 c 1,20,-1
 284 820 l 1,21,-1
 348 820 l 1,22,-1
 348 707 l 1,23,24
 405 705 405 705 458.5 689 c 128,-1,25
 512 673 512 673 551 646 c 1,26,-1
 518 566 l 1,27,28
 437 617 437 617 348 622 c 1,29,-1
 348 389 l 1,30,31
 421 371 421 371 468 351.5 c 128,-1,32
 515 332 515 332 547.5 293.5 c 128,-1,33
 580 255 580 255 580 191 c 0,34,0
 580 112 580 112 520.5 57 c 128,-1,1
189 445 m 128,-1,36
 222 421 222 421 284 405 c 1,37,-1
 284 621 l 1,38,39
 220 613 220 613 188 583.5 c 128,-1,40
 156 554 156 554 156 512 c 0,41,35
 156 469 156 469 189 445 c 128,-1,36
448.5 113.5 m 128,-1,43
 482 142 482 142 482 185 c 0,44,45
 482 229 482 229 447.5 252.5 c 128,-1,46
 413 276 413 276 348 294 c 1,47,-1
 348 79 l 1,48,42
 415 85 415 85 448.5 113.5 c 128,-1,43
EndSplineSet
EndChar

StartChar: plus
Encoding: 43 43 86
Width: 582
Flags: W
LayerCount: 2
Fore
SplineSet
515 310 m 1,0,-1
 333 310 l 1,1,-1
 333 131 l 1,2,-1
 249 131 l 1,3,-1
 249 310 l 1,4,-1
 67 310 l 1,5,-1
 67 389 l 1,6,-1
 249 389 l 1,7,-1
 249 569 l 1,8,-1
 333 569 l 1,9,-1
 333 389 l 1,10,-1
 515 389 l 1,11,-1
 515 310 l 1,0,-1
EndSplineSet
EndChar

StartChar: equal
Encoding: 61 61 87
Width: 582
Flags: W
LayerCount: 2
Fore
SplineSet
67 508 m 1,0,-1
 515 508 l 1,1,-1
 515 429 l 1,2,-1
 67 429 l 1,3,-1
 67 508 l 1,0,-1
67 271 m 1,4,-1
 515 271 l 1,5,-1
 515 192 l 1,6,-1
 67 192 l 1,7,-1
 67 271 l 1,4,-1
EndSplineSet
EndChar

StartChar: greater
Encoding: 62 62 88
Width: 582
Flags: W
LayerCount: 2
Fore
SplineSet
515 393 m 1,0,-1
 515 307 l 1,1,-1
 67 130 l 1,2,-1
 67 213 l 1,3,-1
 423 350 l 1,4,-1
 67 487 l 1,5,-1
 67 570 l 1,6,-1
 515 393 l 1,0,-1
EndSplineSet
EndChar

StartChar: less
Encoding: 60 60 89
Width: 582
Flags: W
LayerCount: 2
Fore
SplineSet
515 487 m 1,0,-1
 160 350 l 1,1,-1
 515 213 l 1,2,-1
 515 130 l 1,3,-1
 67 307 l 1,4,-1
 67 393 l 1,5,-1
 515 570 l 1,6,-1
 515 487 l 1,0,-1
EndSplineSet
EndChar

StartChar: percent
Encoding: 37 37 90
Width: 843
Flags: W
LayerCount: 2
Fore
SplineSet
82 377 m 128,-1,1
 37 430 37 430 37 515 c 256,2,3
 37 600 37 600 82 653 c 128,-1,4
 127 706 127 706 200 706 c 256,5,6
 273 706 273 706 317.5 653.5 c 128,-1,7
 362 601 362 601 362 515 c 256,8,9
 362 429 362 429 317.5 376.5 c 128,-1,10
 273 324 273 324 200 324 c 256,11,0
 127 324 127 324 82 377 c 128,-1,1
622 700 m 1,12,-1
 699 700 l 1,13,-1
 221 0 l 1,14,-1
 144 0 l 1,15,-1
 622 700 l 1,12,-1
272 416.5 m 128,-1,17
 298 452 298 452 298 515 c 256,18,19
 298 578 298 578 272 613.5 c 128,-1,20
 246 649 246 649 200 649 c 0,21,22
 155 649 155 649 128.5 613 c 128,-1,23
 102 577 102 577 102 515 c 256,24,25
 102 453 102 453 128.5 417 c 128,-1,26
 155 381 155 381 200 381 c 0,27,16
 246 381 246 381 272 416.5 c 128,-1,17
525.5 46.5 m 128,-1,29
 481 99 481 99 481 185 c 256,30,31
 481 271 481 271 525.5 323.5 c 128,-1,32
 570 376 570 376 643 376 c 256,33,34
 716 376 716 376 761 323 c 128,-1,35
 806 270 806 270 806 185 c 256,36,37
 806 100 806 100 761 47 c 128,-1,38
 716 -6 716 -6 643 -6 c 256,39,28
 570 -6 570 -6 525.5 46.5 c 128,-1,29
714.5 87 m 128,-1,41
 741 123 741 123 741 185 c 256,42,43
 741 247 741 247 714.5 283 c 128,-1,44
 688 319 688 319 643 319 c 0,45,46
 597 319 597 319 571 283.5 c 128,-1,47
 545 248 545 248 545 185 c 256,48,49
 545 122 545 122 571 86.5 c 128,-1,50
 597 51 597 51 643 51 c 0,51,40
 688 51 688 51 714.5 87 c 128,-1,41
EndSplineSet
EndChar

StartChar: at
Encoding: 64 64 91
Width: 1034
Flags: W
LayerCount: 2
Fore
SplineSet
761 651.5 m 128,-1,1
 867 596 867 596 926.5 496 c 128,-1,2
 986 396 986 396 986 268 c 256,3,4
 986 140 986 140 939 67 c 128,-1,5
 892 -6 892 -6 808 -6 c 0,6,7
 760 -6 760 -6 728.5 18.5 c 128,-1,8
 697 43 697 43 688 89 c 1,9,10
 658 43 658 43 609.5 18.5 c 128,-1,11
 561 -6 561 -6 498 -6 c 0,12,13
 428 -6 428 -6 372 27 c 128,-1,14
 316 60 316 60 284.5 118.5 c 128,-1,15
 253 177 253 177 253 251 c 0,16,17
 253 324 253 324 284.5 382.5 c 128,-1,18
 316 441 316 441 372 473.5 c 128,-1,19
 428 506 428 506 498 506 c 0,20,21
 556 506 556 506 603 484.5 c 128,-1,22
 650 463 650 463 681 421 c 1,23,-1
 681 502 l 1,24,-1
 768 502 l 1,25,-1
 768 142 l 2,26,27
 768 105 768 105 784 87.5 c 128,-1,28
 800 70 800 70 825 70 c 0,29,30
 869 70 869 70 893.5 121.5 c 128,-1,31
 918 173 918 173 918 267 c 0,32,33
 918 378 918 378 868 462.5 c 128,-1,34
 818 547 818 547 727.5 594 c 128,-1,35
 637 641 637 641 520 641 c 0,36,37
 402 641 402 641 311.5 592 c 128,-1,38
 221 543 221 543 171 455 c 128,-1,39
 121 367 121 367 121 254 c 0,40,41
 121 140 121 140 170.5 52 c 128,-1,42
 220 -36 220 -36 309.5 -85.5 c 128,-1,43
 399 -135 399 -135 516 -135 c 0,44,45
 565 -135 565 -135 616 -124 c 128,-1,46
 667 -113 667 -113 709 -91 c 1,47,-1
 731 -155 l 1,48,49
 687 -178 687 -178 629 -190 c 128,-1,50
 571 -202 571 -202 516 -202 c 0,51,52
 379 -202 379 -202 272.5 -143.5 c 128,-1,53
 166 -85 166 -85 107 19 c 128,-1,54
 48 123 48 123 48 254 c 256,55,56
 48 385 48 385 107.5 488 c 128,-1,57
 167 591 167 591 274.5 649 c 128,-1,58
 382 707 382 707 520 707 c 0,59,0
 655 707 655 707 761 651.5 c 128,-1,1
599.5 94 m 128,-1,61
 638 116 638 116 660.5 156.5 c 128,-1,62
 683 197 683 197 683 251 c 256,63,64
 683 305 683 305 660.5 345.5 c 128,-1,65
 638 386 638 386 599.5 407.5 c 128,-1,66
 561 429 561 429 512 429 c 0,67,68
 436 429 436 429 389 380.5 c 128,-1,69
 342 332 342 332 342 251 c 256,70,71
 342 170 342 170 389.5 121 c 128,-1,72
 437 72 437 72 512 72 c 0,73,60
 561 72 561 72 599.5 94 c 128,-1,61
EndSplineSet
Substitution2: "'case' Case-Sensitive Forms lookup 38 subtable" at.case
Substitution2: "'aalt' Access All Alternates lookup 0 subtable" at.case
EndChar

StartChar: ampersand
Encoding: 38 38 92
Width: 686
Flags: W
LayerCount: 2
Fore
SplineSet
617 -11 m 1,0,-1
 524 82 l 1,1,2
 431 -8 431 -8 290 -8 c 0,3,4
 220 -8 220 -8 164 15 c 128,-1,5
 108 38 108 38 76.5 79.5 c 128,-1,6
 45 121 45 121 45 174 c 0,7,8
 45 238 45 238 84.5 287.5 c 128,-1,9
 124 337 124 337 215 389 c 1,10,11
 169 435 169 435 150 472 c 128,-1,12
 131 509 131 509 131 549 c 0,13,14
 131 620 131 620 182.5 663 c 128,-1,15
 234 706 234 706 320 706 c 0,16,17
 400 706 400 706 447 667 c 128,-1,18
 494 628 494 628 494 560 c 0,19,20
 494 507 494 507 459.5 465 c 128,-1,21
 425 423 425 423 345 377 c 1,22,-1
 518 205 l 1,23,24
 548 262 548 262 561 332 c 1,25,-1
 638 307 l 1,26,27
 620 215 620 215 577 147 c 1,28,-1
 671 53 l 1,29,-1
 617 -11 l 1,0,-1
246.5 612.5 m 128,-1,31
 220 589 220 589 220 551 c 0,32,33
 220 524 220 524 234.5 499 c 128,-1,34
 249 474 249 474 291 431 c 1,35,36
 360 470 360 470 386.5 498 c 128,-1,37
 413 526 413 526 413 559 c 0,38,39
 413 594 413 594 388.5 615 c 128,-1,40
 364 636 364 636 320 636 c 0,41,30
 273 636 273 636 246.5 612.5 c 128,-1,31
467 138 m 1,43,-1
 268 336 l 1,44,45
 196 296 196 296 167.5 261.5 c 128,-1,46
 139 227 139 227 139 184 c 0,47,48
 139 134 139 134 182.5 103 c 128,-1,49
 226 72 226 72 296 72 c 0,50,42
 400 72 400 72 467 138 c 1,43,-1
EndSplineSet
Substitution2: "'smcp' Lowercase to Small Capitals lookup 37 subtable" ampersand.sc
Substitution2: "'c2sc' Capitals to Small Capitals lookup 36 subtable" ampersand.sc
Substitution2: "'aalt' Access All Alternates lookup 0 subtable" ampersand.sc
EndChar

StartChar: bar
Encoding: 124 124 93
Width: 299
Flags: W
LayerCount: 2
Fore
SplineSet
105 742 m 1,0,-1
 194 742 l 1,1,-1
 194 -194 l 1,2,-1
 105 -194 l 1,3,-1
 105 742 l 1,0,-1
EndSplineSet
EndChar

StartChar: asciicircum
Encoding: 94 94 94
Width: 583
Flags: W
LayerCount: 2
Fore
SplineSet
431 142 m 1,0,-1
 292 479 l 1,1,-1
 152 142 l 1,2,-1
 75 142 l 1,3,-1
 252 558 l 1,4,-1
 332 558 l 1,5,-1
 508 142 l 1,6,-1
 431 142 l 1,0,-1
EndSplineSet
EndChar

StartChar: grave
Encoding: 96 96 95
Width: 600
Flags: W
AnchorPoint: "Anchor-16" 300 701 basemark 0
LayerCount: 2
Fore
SplineSet
117 737 m 1,0,-1
 239 737 l 1,1,-1
 375 607 l 1,2,-1
 285 607 l 1,3,-1
 117 737 l 1,0,-1
EndSplineSet
EndChar

StartChar: uniF00C
Encoding: 61452 61452 96
Width: 512
VWidth: 512
Flags: W
LayerCount: 2
Fore
SplineSet
174 9 m 2,0,-1
 7 175 l 2,1,2
 0 182 0 182 0 193 c 128,-1,3
 0 204 0 204 7 211 c 2,4,-1
 44 247 l 2,5,6
 51 255 51 255 61.5 255 c 128,-1,7
 72 255 72 255 80 247 c 2,8,-1
 192 135 l 1,9,-1
 432 375 l 2,10,11
 440 383 440 383 450.5 383 c 128,-1,12
 461 383 461 383 468 375 c 2,13,-1
 505 339 l 2,14,15
 512 332 512 332 512 321 c 128,-1,16
 512 310 512 310 505 303 c 2,17,-1
 210 9 l 2,18,19
 203 1 203 1 192 1 c 128,-1,20
 181 1 181 1 174 9 c 2,0,-1
EndSplineSet
EndChar
